<?xml version="1.0" encoding="utf-8"?>
<!-- Generator: Adobe Illustrator 27.2.0, SVG Export Plug-In . SVG Version: 6.00 Build 0)  -->
<svg version="1.1" id="Слой_1" xmlns="http://www.w3.org/2000/svg" xmlns:xlink="http://www.w3.org/1999/xlink" x="0px" y="0px"
	 viewBox="0 0 1920 1080" style="enable-background:new 0 0 1920 1080;" xml:space="preserve">
<style type="text/css">
	.st0{fill:#F79438;}
	.st1{fill:#4FC646;}
	.st2{fill:#FFFFFF;}
	.st3{font-family:'Gilroy-Regular';}
	.st4{font-size:54.4106px;}
	.st5{fill:#ECECEC;}
	.st6{fill:#1A2E35;}
	.st7{fill:#FFC800;}
	.st8{opacity:0.1;}
	.st9{fill:#2B454E;}
	.st10{opacity:0.2;}
	.st11{opacity:0.4;fill:#FFFFFF;}
	.st12{fill:#DCDCDC;}
	.st13{fill:#375A64;}
</style>
<g>
	<rect y="0" class="st0" width="1920" height="1080"/>
	<g>
		<path class="st1" d="M796.97,259.28c-14.63,5.66-24.59,12.04-29.65,15.7c-2.31,1.67-6.13,2.12-8.76,1.03h0
			c-2.77-1.15-3.21-3.57-0.99-5.42c3.81-3.16,8.51-7.03,14.59-11.25c19.05-13.2,51.73-29.81,113.47-38.86
			c98.18-14.38,125.39,27.01,211.9,6.32c0,0-42.58,7.06-128.72-17.78c-68.18-19.66-140.64,10.52-141.98,10.94
			c0.55-0.63,36.15-40.89,114.09-50.02c86.71-10.15,132.28,52.24,231.32,32.57c0,0-55.28,75.45-165.46,88.35
			c-72.72,8.52-117.51-16.62-156.38-32.42C835.18,252.26,814.24,252.59,796.97,259.28z"/>
		<g>
			<path class="st2" d="M758.51,265.74c1.89,0,3.27,0.4,4.16,1.19c0.88,0.8,1.56,1.87,2.03,3.23l14.68,43.87
				c0.41,1.3,0.77,1.94,1.06,1.94c0.18,0,0.5-0.68,0.97-2.03l13.09-43.69c0.41-1.36,1.16-2.45,2.26-3.27
				c1.09-0.83,2.34-1.24,3.76-1.24h12.03c-1.71,0.41-3.13,0.78-4.24,1.11c-1.12,0.33-2.02,0.83-2.7,1.5
				c-0.68,0.68-1.15,1.67-1.42,2.96c-0.27,1.3-0.4,3.13-0.4,5.48v39.8c0,2.36,0.13,4.19,0.4,5.48c0.27,1.3,0.74,2.28,1.42,2.96
				c0.68,0.68,1.58,1.17,2.7,1.46c1.12,0.3,2.53,0.68,4.24,1.15h-25.47c1.71-0.47,3.14-0.85,4.29-1.15c1.15-0.29,2.05-0.78,2.7-1.46
				c0.65-0.68,1.11-1.66,1.37-2.96c0.27-1.3,0.4-3.12,0.4-5.48v-43.16c0-1.47-0.12-2.21-0.35-2.21c-0.3,0-0.62,0.68-0.97,2.03
				l-15.92,53.15c-0.3,0.83-0.86,1.24-1.68,1.24c-0.88,0-1.47-0.41-1.77-1.24l-16.45-49.26c-0.41-1.3-0.77-1.94-1.06-1.94
				c-0.3,0-0.44,0.74-0.44,2.21v39.18c0,2.36,0.13,4.19,0.4,5.48c0.27,1.3,0.74,2.28,1.42,2.96c0.68,0.68,1.58,1.17,2.7,1.46
				c1.12,0.3,2.53,0.68,4.24,1.15h-18.39c1.71-0.47,3.14-0.85,4.29-1.15c1.15-0.29,2.05-0.78,2.7-1.46c0.65-0.68,1.1-1.66,1.37-2.96
				c0.27-1.3,0.4-3.12,0.4-5.48v-39.8c0-2.36-0.13-4.19-0.4-5.48c-0.27-1.3-0.72-2.28-1.37-2.96c-0.65-0.68-1.55-1.18-2.7-1.5
				c-1.15-0.32-2.58-0.69-4.29-1.11H758.51z"/>
			<path class="st2" d="M831.39,328.54c-1.48,0-2.95-0.09-4.42-0.27s-2.9-0.41-4.29-0.71c-1.39-0.29-2.65-0.62-3.8-0.97
				s-2.14-0.71-2.96-1.06l-2.03-13.62c0.77,2.18,1.71,4.23,2.83,6.15c1.12,1.92,2.42,3.58,3.89,5c1.47,1.42,3.11,2.53,4.91,3.36
				c1.8,0.83,3.76,1.24,5.88,1.24c3.65,0,6.45-0.75,8.4-2.26c1.95-1.5,2.92-3.34,2.92-5.53c0-1.94-0.69-3.68-2.08-5.22
				c-1.39-1.53-3.1-2.99-5.13-4.38c-2.03-1.38-4.26-2.77-6.68-4.16c-2.42-1.38-4.64-2.89-6.68-4.51c-2.03-1.62-3.74-3.42-5.13-5.39
				c-1.38-1.98-2.08-4.26-2.08-6.85c0-1.71,0.4-3.2,1.19-4.47s1.84-2.34,3.14-3.23c1.3-0.88,2.81-1.55,4.55-1.99
				c1.74-0.44,3.52-0.66,5.35-0.66c2.48,0,5,0.33,7.56,0.97c2.56,0.65,4.64,1.33,6.23,2.03l1.68,12.03
				c-1.53-4.36-3.64-7.81-6.32-10.35c-2.68-2.53-5.73-3.8-9.15-3.8c-1.12,0-2.26,0.12-3.4,0.35c-1.15,0.24-2.21,0.62-3.19,1.15
				c-0.97,0.53-1.77,1.24-2.39,2.12c-0.62,0.88-0.93,1.95-0.93,3.19c0,1.71,0.68,3.26,2.03,4.64s3.05,2.73,5.09,4.02
				c2.03,1.3,4.25,2.62,6.63,3.98c2.39,1.36,4.6,2.86,6.63,4.51c2.03,1.65,3.73,3.53,5.09,5.62c1.36,2.09,2.03,4.56,2.03,7.39
				c0,1.48-0.35,2.92-1.06,4.33c-0.71,1.42-1.73,2.67-3.05,3.76c-1.33,1.09-2.93,1.96-4.82,2.61
				C835.96,328.21,833.8,328.54,831.39,328.54z"/>
			<path class="st2" d="M865.7,316.6c0,2.36,0.13,4.19,0.4,5.48c0.27,1.3,0.74,2.28,1.41,2.96c0.68,0.68,1.58,1.17,2.7,1.46
				c1.12,0.3,2.53,0.68,4.24,1.15h-25.47c1.71-0.47,3.14-0.85,4.29-1.15c1.15-0.29,2.05-0.78,2.7-1.46c0.65-0.68,1.1-1.66,1.37-2.96
				c0.27-1.3,0.4-3.12,0.4-5.48v-42.45c0-2.12-0.04-3.85-0.13-5.17c-0.09-1.33-0.38-2.33-0.88-3.01c-0.5-0.68-1.28-1.09-2.34-1.24
				c-1.06-0.15-2.57-0.1-4.51,0.13l15.83-4.42v45.11l12.21-14.86c1.12-1.36,2.13-2.61,3.05-3.76c0.91-1.15,1.52-2.17,1.81-3.05
				c0.29-0.88,0.23-1.67-0.18-2.34c-0.41-0.68-1.39-1.22-2.92-1.63h17.78c-2.48,0.35-4.59,0.81-6.32,1.37s-3.27,1.27-4.6,2.12
				c-1.33,0.86-2.57,1.87-3.71,3.05c-1.15,1.18-2.4,2.59-3.76,4.24l-2.83,3.45l13.35,23.61c0.83,1.47,1.62,2.76,2.39,3.85
				c0.77,1.09,1.65,2.02,2.65,2.79c1,0.77,2.18,1.41,3.54,1.94c1.36,0.53,3.06,0.97,5.13,1.33h-24.85c1.77-0.41,3.02-0.87,3.76-1.37
				c0.74-0.5,1.13-1.13,1.19-1.9c0.06-0.77-0.19-1.68-0.75-2.74c-0.56-1.06-1.28-2.36-2.17-3.89l-9.64-16.98l-5.13,6.19V316.6z"/>
			<path class="st2" d="M907.27,300.77h20.78v3.54h-20.78V300.77z"/>
			<path class="st2" d="M948.31,279.9h12.38v0.88h-12.38v35.82c0,2.36,0.13,4.19,0.4,5.48c0.27,1.3,0.74,2.28,1.41,2.96
				c0.68,0.68,1.58,1.17,2.7,1.46c1.12,0.3,2.53,0.68,4.24,1.15h-25.47c1.71-0.47,3.14-0.85,4.29-1.15c1.15-0.29,2.05-0.78,2.7-1.46
				c0.65-0.68,1.1-1.66,1.37-2.96c0.27-1.3,0.4-3.12,0.4-5.48v-32.46c0-0.59,0.01-1.16,0.04-1.73c0.03-0.56,0.07-1.1,0.13-1.63
				h-6.55v-0.88h6.63c0.53-4.24,1.74-7.81,3.63-10.7c1.88-2.89,4.24-5.1,7.07-6.63c1-0.53,2.15-0.97,3.45-1.33
				c1.3-0.35,2.63-0.6,4.02-0.75c1.38-0.15,2.75-0.22,4.11-0.22c1.35,0,2.62,0.06,3.8,0.18l2.57,11.5
				c-2.53-3.77-4.79-6.38-6.77-7.83c-1.97-1.44-3.9-2.17-5.79-2.17c-1.53,0-2.83,0.38-3.89,1.15c-1.06,0.77-1.93,1.81-2.61,3.14
				c-0.68,1.33-1.16,2.92-1.46,4.78c-0.3,1.86-0.44,3.85-0.44,5.97V279.9z"/>
			<path class="st2" d="M982.18,279.01c3.36,0,6.41,0.65,9.16,1.95c2.74,1.3,5.09,3.08,7.03,5.35c1.94,2.27,3.46,4.91,4.55,7.91
				c1.09,3.01,1.63,6.19,1.63,9.55c0,3.36-0.55,6.55-1.63,9.55c-1.09,3.01-2.61,5.64-4.55,7.91c-1.95,2.27-4.29,4.05-7.03,5.35
				c-2.74,1.3-5.79,1.95-9.16,1.95c-3.36,0-6.41-0.65-9.16-1.95c-2.74-1.3-5.09-3.08-7.03-5.35c-1.95-2.27-3.47-4.91-4.56-7.91
				c-1.09-3.01-1.63-6.19-1.63-9.55c0-3.36,0.55-6.54,1.63-9.55c1.09-3.01,2.61-5.64,4.56-7.91c1.94-2.27,4.29-4.05,7.03-5.35
				C975.77,279.66,978.82,279.01,982.18,279.01z M982.18,327.65c2.71,0,4.98-0.69,6.81-2.08c1.83-1.38,3.3-3.21,4.42-5.48
				c1.12-2.27,1.93-4.83,2.43-7.69c0.5-2.86,0.75-5.73,0.75-8.62c0-2.95-0.25-5.84-0.75-8.67c-0.5-2.83-1.31-5.38-2.43-7.65
				c-1.12-2.27-2.6-4.1-4.42-5.48c-1.83-1.38-4.1-2.08-6.81-2.08c-2.71,0-4.98,0.69-6.81,2.08c-1.83,1.39-3.3,3.22-4.42,5.48
				c-1.12,2.27-1.93,4.82-2.43,7.65c-0.5,2.83-0.75,5.72-0.75,8.67c0,2.89,0.25,5.76,0.75,8.62c0.5,2.86,1.31,5.43,2.43,7.69
				c1.12,2.27,2.59,4.1,4.42,5.48C977.2,326.96,979.47,327.65,982.18,327.65z"/>
			<path class="st2" d="M1031.35,279.01c3.36,0,6.41,0.65,9.16,1.95c2.74,1.3,5.09,3.08,7.03,5.35c1.94,2.27,3.46,4.91,4.55,7.91
				c1.09,3.01,1.63,6.19,1.63,9.55c0,3.36-0.55,6.55-1.63,9.55c-1.09,3.01-2.61,5.64-4.55,7.91c-1.95,2.27-4.29,4.05-7.03,5.35
				c-2.74,1.3-5.79,1.95-9.16,1.95c-3.36,0-6.41-0.65-9.16-1.95c-2.74-1.3-5.09-3.08-7.03-5.35c-1.95-2.27-3.47-4.91-4.56-7.91
				c-1.09-3.01-1.63-6.19-1.63-9.55c0-3.36,0.55-6.54,1.63-9.55c1.09-3.01,2.61-5.64,4.56-7.91c1.94-2.27,4.29-4.05,7.03-5.35
				C1024.94,279.66,1027.99,279.01,1031.35,279.01z M1031.35,327.65c2.71,0,4.98-0.69,6.81-2.08c1.83-1.38,3.3-3.21,4.42-5.48
				c1.12-2.27,1.93-4.83,2.43-7.69c0.5-2.86,0.75-5.73,0.75-8.62c0-2.95-0.25-5.84-0.75-8.67c-0.5-2.83-1.31-5.38-2.43-7.65
				c-1.12-2.27-2.6-4.1-4.42-5.48c-1.83-1.38-4.1-2.08-6.81-2.08s-4.98,0.69-6.81,2.08c-1.83,1.39-3.3,3.22-4.42,5.48
				c-1.12,2.27-1.93,4.82-2.43,7.65c-0.5,2.83-0.75,5.72-0.75,8.67c0,2.89,0.25,5.76,0.75,8.62c0.5,2.86,1.31,5.43,2.43,7.69
				c1.12,2.27,2.59,4.1,4.42,5.48C1026.37,326.96,1028.64,327.65,1031.35,327.65z"/>
			<path class="st2" d="M1092.64,317.75l-2.21,3.27c-1.53,2.3-3.4,4.13-5.62,5.48s-4.55,2.03-7.03,2.03c-3.54,0-6.54-0.71-9.02-2.12
				c-2.48-1.42-4.47-3.29-5.97-5.62c-1.5-2.33-2.55-4.98-3.14-7.96c-0.59-2.98-0.75-6.01-0.49-9.11c0.27-3.09,0.92-6.12,1.95-9.06
				c1.03-2.95,2.42-5.59,4.16-7.91c1.73-2.33,3.82-4.2,6.23-5.62c2.42-1.42,5.1-2.12,8.05-2.12c2.3,0,4.63,0.69,6.99,2.08
				c2.36,1.38,4.39,3.26,6.1,5.62v-12.56c0-2.12-0.05-3.85-0.13-5.17s-0.38-2.33-0.88-3.01c-0.5-0.68-1.28-1.09-2.34-1.24
				c-1.06-0.15-2.57-0.1-4.51,0.13l15.83-4.42v57.93c0,2.77,0.22,4.66,0.66,5.66c0.44,1,1.17,1.5,2.17,1.5
				c0.7,0,1.53-0.15,2.47-0.44c0.94-0.29,2.07-0.62,3.36-0.97c-1.59,1-3.42,1.99-5.48,2.96c-2.07,0.97-4.13,1.46-6.19,1.46
				c-1.53,0-2.74-0.52-3.63-1.55c-0.88-1.03-1.32-2.84-1.32-5.44V317.75z M1092.64,288.65c-0.59-1.24-1.33-2.34-2.21-3.32
				c-0.88-0.97-1.84-1.81-2.87-2.52c-1.03-0.71-2.11-1.25-3.23-1.63s-2.18-0.58-3.18-0.58c-2.12,0-4.03,0.66-5.7,1.99
				c-1.68,1.33-3.13,3.05-4.34,5.17c-1.21,2.12-2.15,4.55-2.83,7.3c-0.68,2.74-1.09,5.56-1.24,8.45c-0.15,2.89,0,5.7,0.44,8.45
				c0.44,2.74,1.18,5.17,2.21,7.3c1.03,2.12,2.37,3.85,4.02,5.17c1.65,1.33,3.65,1.99,6.02,1.99c2.36,0,4.49-0.72,6.41-2.17
				c1.92-1.44,3.49-3.32,4.73-5.62c0.59-1,1.03-2.31,1.33-3.94c0.29-1.62,0.44-3.32,0.44-5.09V288.65z"/>
		</g>
	</g>
	<text transform="matrix(1 0 0 1 138.6152 650.9202)" class="st2 st3 st4">Уважаемые посетители msk-food.ru</text>
	<text transform="matrix(1 0 0 1 138.6152 707.4857)"><tspan x="0" y="0" class="st2 st3 st4">Сайт временно находится на </tspan><tspan x="0" y="65.29" class="st2 st3 st4">техническом обслуживании.</tspan><tspan x="0" y="130.59" class="st2 st3 st4">Приносим свои извинения за неудобства!</tspan></text>
	<g>
		<g>
			<path class="st5" d="M1210.47,768.07c-13.99,0.14-35.4,0.44-49.23,0.45c0,0-0.44,0-0.44,0s0-0.45,0-0.45l-0.05-20.8
				c0,0,0-0.5,0-0.5l0.5,0c14.52,0.05,34.92,0.06,49.23,0.23c0,0,0.28,0,0.28,0s0,0.27,0,0.27S1210.47,768.07,1210.47,768.07
				L1210.47,768.07z M1210.47,768.07l-0.27-20.8c0,0,0.27,0.27,0.27,0.27c-8.21,0.05-16.41,0.16-24.62,0.16l-24.62,0.06
				c0,0,0.5-0.5,0.5-0.5l-0.05,20.8c0,0-0.45-0.45-0.45-0.45C1174.96,767.66,1196.59,767.9,1210.47,768.07L1210.47,768.07z"/>
		</g>
		<g>
			<path class="st5" d="M1183.01,794.3c-13.99,0.14-35.4,0.44-49.23,0.45c0,0-0.44,0-0.44,0s0-0.45,0-0.45l-0.05-20.8l0-0.5
				c0,0,0.5,0,0.5,0c14.51,0.05,34.92,0.06,49.23,0.23c0,0,0.28,0,0.28,0s0,0.27,0,0.27S1183.01,794.3,1183.01,794.3L1183.01,794.3z
				 M1183.01,794.3l-0.27-20.8l0.27,0.27c-8.21,0.05-16.41,0.16-24.62,0.16c0,0-24.62,0.06-24.62,0.06s0.5-0.5,0.5-0.5l-0.05,20.8
				l-0.45-0.45C1147.5,793.89,1169.13,794.13,1183.01,794.3L1183.01,794.3z"/>
		</g>
		<g>
			<path class="st5" d="M1183.01,344.15c-13.99,0.14-35.4,0.44-49.23,0.45c0,0-0.44,0-0.44,0l0-0.45l-0.05-20.8l0-0.5l0.5,0
				c14.51,0.05,34.92,0.06,49.23,0.23c0,0,0.28,0,0.28,0s0,0.27,0,0.27S1183.01,344.15,1183.01,344.15L1183.01,344.15z
				 M1183.01,344.15l-0.27-20.8l0.27,0.27c-8.21,0.05-16.41,0.16-24.62,0.16l-24.62,0.06c0,0,0.5-0.5,0.5-0.5l-0.05,20.8
				c0,0-0.45-0.45-0.45-0.45C1147.5,343.74,1169.13,343.98,1183.01,344.15L1183.01,344.15z"/>
		</g>
		<g>
			<path class="st5" d="M1805.43,344.15c-13.99,0.14-35.4,0.44-49.23,0.45c0,0-0.44,0-0.44,0s0-0.45,0-0.45l-0.05-20.8
				c0,0,0-0.5,0-0.5l0.5,0c14.52,0.05,34.92,0.06,49.23,0.23c0,0,0.28,0,0.28,0s0,0.27,0,0.27S1805.43,344.15,1805.43,344.15
				L1805.43,344.15z M1805.43,344.15l-0.27-20.8l0.27,0.27c-8.21,0.05-16.41,0.16-24.62,0.16l-24.62,0.06c0,0,0.5-0.5,0.5-0.5
				l-0.05,20.8c0,0-0.45-0.45-0.45-0.45C1769.92,343.74,1791.55,343.98,1805.43,344.15L1805.43,344.15z"/>
		</g>
		<g>
			<path class="st5" d="M1777.97,370.38c-13.99,0.14-35.4,0.44-49.23,0.45c0,0-0.44,0-0.44,0s0-0.45,0-0.45l-0.05-20.8
				c0,0,0-0.5,0-0.5l0.5,0c14.52,0.05,34.92,0.06,49.23,0.23c0,0,0.28,0,0.28,0s0,0.27,0,0.27S1777.97,370.38,1777.97,370.38
				L1777.97,370.38z M1777.97,370.38l-0.27-20.8c0,0,0.27,0.27,0.27,0.27c-8.21,0.05-16.41,0.16-24.62,0.16l-24.62,0.06
				c0,0,0.5-0.5,0.5-0.5l-0.05,20.8c0,0-0.45-0.45-0.45-0.45C1742.46,369.97,1764.09,370.22,1777.97,370.38L1777.97,370.38z"/>
		</g>
		<g>
			<path class="st5" d="M1651.88,613.76c-13.99,0.14-35.4,0.44-49.23,0.45c0,0-0.44,0-0.44,0s0-0.45,0-0.45l-0.05-20.8
				c0,0,0-0.5,0-0.5l0.5,0c14.51,0.05,34.92,0.06,49.23,0.23c0,0,0.28,0,0.28,0s0,0.27,0,0.27S1651.88,613.76,1651.88,613.76
				L1651.88,613.76z M1651.88,613.76c0,0-0.27-20.8-0.27-20.8l0.27,0.27c-8.21,0.05-16.41,0.16-24.62,0.16l-24.62,0.06
				c0,0,0.5-0.5,0.5-0.5l-0.05,20.8c0,0-0.45-0.45-0.45-0.45C1616.37,613.35,1638,613.59,1651.88,613.76L1651.88,613.76z"/>
		</g>
		<g>
			<path class="st5" d="M1624.42,639.99c-13.99,0.14-35.4,0.44-49.23,0.45c0,0-0.44,0-0.44,0s0-0.45,0-0.45l-0.05-20.8
				c0,0,0-0.5,0-0.5l0.5,0c14.51,0.05,34.92,0.06,49.23,0.23c0,0,0.28,0,0.28,0l0,0.27
				C1624.69,619.19,1624.42,639.99,1624.42,639.99L1624.42,639.99z M1624.42,639.99l-0.27-20.8c0,0,0.27,0.27,0.27,0.27
				c-8.21,0.05-16.41,0.16-24.62,0.16l-24.62,0.06c0,0,0.5-0.5,0.5-0.5l-0.05,20.8l-0.45-0.45
				C1588.91,639.58,1610.54,639.82,1624.42,639.99L1624.42,639.99z"/>
		</g>
		<g>
			<path class="st5" d="M1597.06,613.76c-13.99,0.14-35.4,0.44-49.23,0.45c0,0-0.44,0-0.44,0l0-0.45l-0.05-20.8c0,0,0-0.5,0-0.5
				s0.5,0,0.5,0c14.52,0.05,34.92,0.06,49.23,0.23c0,0,0.28,0,0.28,0l0,0.27L1597.06,613.76L1597.06,613.76z M1597.06,613.76
				l-0.27-20.8l0.27,0.27c-8.21,0.05-16.41,0.16-24.62,0.16l-24.62,0.06c0,0,0.5-0.5,0.5-0.5l-0.05,20.8c0,0-0.45-0.45-0.45-0.45
				C1561.55,613.35,1583.18,613.59,1597.06,613.76L1597.06,613.76z"/>
		</g>
		<g>
			<path class="st5" d="M1805.43,794.3c-13.99,0.14-35.4,0.44-49.23,0.45c0,0-0.44,0-0.44,0l0-0.45l-0.05-20.8c0,0,0-0.5,0-0.5
				s0.5,0,0.5,0c14.52,0.05,34.92,0.06,49.23,0.23c0,0,0.28,0,0.28,0s0,0.27,0,0.27S1805.43,794.3,1805.43,794.3L1805.43,794.3z
				 M1805.43,794.3l-0.27-20.8l0.27,0.27c-8.21,0.05-16.41,0.16-24.62,0.16l-24.62,0.06c0,0,0.5-0.5,0.5-0.5l-0.05,20.8
				c0,0-0.45-0.45-0.45-0.45C1769.92,793.89,1791.55,794.13,1805.43,794.3L1805.43,794.3z"/>
		</g>
		<g>
			<path class="st5" d="M1387.14,406.01c-13.99,0.14-35.4,0.44-49.23,0.45c0,0-0.44,0-0.44,0l0-0.45l-0.05-20.8c0,0,0-0.5,0-0.5
				s0.5,0,0.5,0c14.51,0.05,34.92,0.06,49.23,0.23c0,0,0.28,0,0.28,0s0,0.27,0,0.27L1387.14,406.01L1387.14,406.01z M1387.14,406.01
				l-0.27-20.8c0,0,0.27,0.27,0.27,0.27c-8.21,0.05-16.41,0.16-24.62,0.16c0,0-24.62,0.06-24.62,0.06l0.5-0.5l-0.05,20.8
				c0,0-0.45-0.45-0.45-0.45C1351.63,405.6,1373.27,405.85,1387.14,406.01L1387.14,406.01z"/>
		</g>
	</g>
	<g>
		<path class="st5" d="M1754.86,543.83l9.69-15.63l-4.79-2.96c-1.41-0.87-2.17-2.46-2.03-4.11c0.08-0.91,0.11-1.83,0.09-2.75
			c-0.04-1.65,0.83-3.19,2.28-3.97l4.96-2.66l-8.7-16.21l-4.96,2.66c-1.46,0.78-3.21,0.65-4.57-0.29c-0.76-0.53-1.54-1.01-2.34-1.45
			c-1.45-0.8-2.36-2.31-2.3-3.97l0.18-5.63l-18.38-0.57l-0.17,5.65c-0.05,1.66-1.06,3.1-2.56,3.8c-0.41,0.19-0.81,0.4-1.21,0.61
			c-0.4,0.21-0.79,0.44-1.18,0.67c-1.41,0.85-3.16,0.9-4.57,0.03l-4.82-2.99l-9.69,15.63l4.8,2.98c1.41,0.87,2.17,2.47,2.03,4.12
			c-0.08,0.91-0.11,1.82-0.09,2.74c0.03,1.65-0.83,3.18-2.28,3.96l-4.96,2.66l8.69,16.21l4.96-2.66c1.45-0.78,3.21-0.65,4.56,0.29
			c0.75,0.52,1.53,1,2.33,1.44c1.45,0.79,2.36,2.31,2.31,3.97l-0.17,5.64l18.38,0.57l0.18-5.64c0.05-1.65,1.06-3.09,2.56-3.79
			c0.41-0.19,0.81-0.4,1.22-0.61c0.4-0.21,0.79-0.44,1.18-0.67c1.42-0.86,3.18-0.91,4.59-0.03L1754.86,543.83z M1739.29,532.22
			c-7.33,3.93-16.45,1.18-20.39-6.15c-3.93-7.33-1.19-16.47,6.15-20.4c7.33-3.93,16.47-1.17,20.41,6.16
			C1749.39,519.16,1746.62,528.29,1739.29,532.22z"/>
		<path class="st5" d="M1225.11,720.91l9.69-15.63l-4.79-2.96c-1.41-0.87-2.17-2.46-2.03-4.11c0.08-0.91,0.11-1.83,0.09-2.75
			c-0.04-1.65,0.83-3.19,2.28-3.97l4.96-2.66l-8.7-16.21l-4.96,2.66c-1.46,0.78-3.21,0.65-4.57-0.29c-0.76-0.53-1.54-1.01-2.34-1.45
			c-1.45-0.8-2.36-2.31-2.3-3.97l0.18-5.63l-18.38-0.57l-0.17,5.65c-0.05,1.66-1.06,3.1-2.56,3.8c-0.41,0.19-0.81,0.4-1.21,0.61
			c-0.4,0.21-0.79,0.44-1.18,0.67c-1.41,0.85-3.16,0.9-4.57,0.03l-4.82-2.99l-9.69,15.63l4.8,2.98c1.41,0.87,2.17,2.47,2.03,4.12
			c-0.08,0.91-0.11,1.82-0.09,2.74c0.03,1.65-0.83,3.18-2.28,3.96l-4.96,2.66l8.69,16.21l4.96-2.66c1.45-0.78,3.21-0.65,4.56,0.29
			c0.75,0.52,1.53,1,2.33,1.44c1.45,0.79,2.36,2.31,2.31,3.97l-0.17,5.64l18.38,0.57l0.18-5.64c0.05-1.65,1.06-3.09,2.56-3.79
			c0.41-0.19,0.81-0.4,1.22-0.61c0.4-0.21,0.79-0.44,1.18-0.67c1.42-0.86,3.18-0.91,4.59-0.03L1225.11,720.91z M1209.55,709.31
			c-7.33,3.93-16.45,1.18-20.39-6.15c-3.93-7.33-1.19-16.47,6.15-20.4c7.33-3.93,16.47-1.17,20.41,6.16
			C1219.65,696.25,1216.88,705.38,1209.55,709.31z"/>
		<path class="st5" d="M1413.4,421.59l-6.44-11.16l-3.42,1.97c-1,0.58-2.24,0.52-3.21-0.11c-0.54-0.35-1.09-0.67-1.67-0.96
			c-1.03-0.52-1.69-1.57-1.69-2.72v-3.94h-12.89v3.94c0,1.16-0.66,2.2-1.69,2.72c-0.57,0.29-1.13,0.61-1.67,0.96
			c-0.97,0.63-2.21,0.69-3.21,0.11l-3.42-1.97l-6.44,11.16l3.43,1.98c1.01,0.58,1.56,1.68,1.5,2.84c-0.02,0.31-0.02,0.63-0.02,0.95
			c0,0.32,0.01,0.63,0.02,0.95c0.06,1.15-0.49,2.25-1.49,2.83l-3.44,1.99l6.44,11.16l3.43-1.97c1.01-0.58,2.24-0.52,3.21,0.11
			c0.53,0.35,1.09,0.67,1.66,0.96c1.03,0.53,1.69,1.57,1.69,2.72v3.94h12.89v-3.94c0-1.16,0.66-2.2,1.69-2.72
			c0.57-0.29,1.13-0.61,1.66-0.96c0.97-0.63,2.21-0.69,3.21-0.11l3.42,1.97l6.44-11.16l-3.43-1.98c-1-0.58-1.55-1.68-1.49-2.83
			c0.02-0.32,0.02-0.63,0.02-0.96c0-0.32-0.01-0.63-0.02-0.95c-0.06-1.16,0.49-2.26,1.5-2.84L1413.4,421.59z M1401.08,427.35
			c0,5.83-4.72,10.55-10.55,10.55c-5.83,0-10.56-4.72-10.56-10.55c0-5.83,4.73-10.56,10.56-10.56
			C1396.36,416.79,1401.08,421.52,1401.08,427.35z"/>
	</g>
	<g>
		<g>
			<path class="st6" d="M1259.86,746.16c-21.52,21.07-25.13,53.66-20.6,82.21c0.12,0.65,1.12,0.47,1.12-0.14
				c0-6.5-0.2-12.94-0.18-19.36c0.12-0.29,0.22-0.57,0.33-0.86c5.62-4.08,10.78-8.7,13.98-15.02c3.59-7.07,5.01-15.04,7.76-22.42
				c0.26-0.71-0.5-0.5-0.99-0.14c-13.09,9.65-17.26,20.04-21.02,33.93c0.18-7.21,0.73-14.41,2.28-21.62
				c2.83-13.18,8.42-26.23,17.89-36.01C1260.78,746.35,1260.23,745.78,1259.86,746.16z"/>
			<g>
				<path class="st7" d="M1263.9,748.61c3.7,0.12,6.02,6.04,8.91,7.77c1.53,0.92,3.01,0.86,4.09-0.64
					c2.86-3.99-1.06-8.91-4.75-11.67c2.64,1.08,4.83,2.99,7.67,3.53c1.72,0.32,3.06-0.32,3.46-2.07c1.25-5.44-5.57-7.86-10.25-7.98
					c2.27-1.58,8.78-5.87,5.32-7.98c-3.5-2.12-11.14,4.02-13.63,6.04c-3.66,2.97-8.02,7.41-8.19,12.05
					C1256.31,753.09,1261.05,749.75,1263.9,748.61z"/>
				<path class="st8" d="M1263.9,748.61c3.7,0.12,6.02,6.04,8.91,7.77c1.53,0.92,3.01,0.86,4.09-0.64
					c2.86-3.99-1.06-8.91-4.75-11.67c2.64,1.08,4.83,2.99,7.67,3.53c1.72,0.32,3.06-0.32,3.46-2.07c1.25-5.44-5.57-7.86-10.25-7.98
					c2.27-1.58,8.78-5.87,5.32-7.98c-3.5-2.12-11.14,4.02-13.63,6.04c-3.66,2.97-8.02,7.41-8.19,12.05
					C1256.31,753.09,1261.05,749.75,1263.9,748.61z"/>
				<path class="st7" d="M1262.83,749.53c4.73-2.15,13.83,0.95,14.6-0.85c1.57-3.65-5.7-6.15-9.62-6.63
					c3.61-0.98,10.53-2.54,10.32-6.02c-0.26-4.25-10.62-0.6-15.86,3.42c-6.6,5.06-6.56,9.95-5.47,10.93
					C1258.3,751.72,1262.05,749.88,1262.83,749.53z"/>
			</g>
		</g>
		<g>
			<path class="st6" d="M1210.85,744.07c22.31,20.23,27.16,52.67,23.71,81.37c-0.09,0.65-1.1,0.51-1.12-0.09
				c-0.25-6.49-0.3-12.94-0.56-19.35c-0.13-0.29-0.24-0.56-0.37-0.85c-5.77-3.87-11.1-8.28-14.54-14.48
				c-3.86-6.93-5.58-14.84-8.6-22.11c-0.28-0.7,0.48-0.52,0.99-0.17c13.45,9.15,18.01,19.37,22.29,33.1
				c-0.45-7.19-1.27-14.37-3.1-21.52c-3.33-13.06-9.42-25.89-19.24-35.3C1209.93,744.3,1210.46,743.71,1210.85,744.07z"/>
			<g>
				<path class="st7" d="M1206.9,746.68c-3.69,0.27-5.79,6.27-8.61,8.1c-1.49,0.98-2.98,0.98-4.11-0.49
					c-3.01-3.88,0.72-8.95,4.3-11.84c-2.6,1.18-4.71,3.17-7.53,3.82c-1.71,0.38-3.07-0.21-3.54-1.94c-1.46-5.39,5.27-8.07,9.94-8.36
					c-2.33-1.49-8.99-5.53-5.62-7.77c3.42-2.25,11.28,3.59,13.85,5.51c3.77,2.83,8.3,7.1,8.64,11.73
					C1214.65,750.86,1209.79,747.71,1206.9,746.68z"/>
				<path class="st8" d="M1206.9,746.68c-3.69,0.27-5.79,6.27-8.61,8.1c-1.49,0.98-2.98,0.98-4.11-0.49
					c-3.01-3.88,0.72-8.95,4.3-11.84c-2.6,1.18-4.71,3.17-7.53,3.82c-1.71,0.38-3.07-0.21-3.54-1.94c-1.46-5.39,5.27-8.07,9.94-8.36
					c-2.33-1.49-8.99-5.53-5.62-7.77c3.42-2.25,11.28,3.59,13.85,5.51c3.77,2.83,8.3,7.1,8.64,11.73
					C1214.65,750.86,1209.79,747.71,1206.9,746.68z"/>
				<path class="st7" d="M1208,747.55c-4.81-1.97-13.78,1.47-14.62-0.29c-1.71-3.58,5.46-6.36,9.36-6.99
					c-3.65-0.84-10.62-2.13-10.54-5.62c0.1-4.26,10.59-1,15.98,2.82c6.79,4.81,6.93,9.69,5.88,10.71
					C1212.61,749.57,1208.8,747.88,1208,747.55z"/>
			</g>
		</g>
		<g>
			<path class="st6" d="M1233.66,797.51c1.65,10.66,3.69,21.69,6.93,31.99c0.31,0.94,1.7,0.7,1.56-0.31
				c-1.47-9.86-4.14-19.54-5.6-29.4c-1.49-9.98-2.28-20.09-1.71-30.18c0.94-16.61,5.45-34.29,16.29-47.29
				c0.24-0.31-0.27-0.74-0.51-0.46c-21.71,25.31-18.25,56.34-18.23,59.12c-3.07-10.48-6.24-22.49-17.86-33.16
				c-0.5-0.46-0.89-0.24-0.81,0.54c2.08,19.43,7.48,29.58,18.75,39.97C1232.77,791.42,1233.17,794.49,1233.66,797.51z"/>
			<g>
				<path class="st7" d="M1251.31,725.24c3.9-1.73,9.29,3.24,13.15,3.58c2.05,0.18,3.56-0.62,3.92-2.72
					c0.96-5.58-5.59-8.71-10.8-9.71c3.28-0.2,6.51,0.67,9.73-0.2c1.95-0.54,3.01-1.88,2.55-3.9c-1.44-6.28-9.74-5.35-14.65-3.11
					c1.56-2.78,6.15-10.51,1.5-10.95c-4.7-0.43-9.53,9.77-11.1,13.12c-2.3,4.92-4.6,11.72-2.43,16.63
					C1245.69,733.7,1248.93,727.85,1251.31,725.24z"/>
				<path class="st8" d="M1251.31,725.24c3.9-1.73,9.29,3.24,13.15,3.58c2.05,0.18,3.56-0.62,3.92-2.72
					c0.96-5.58-5.59-8.71-10.8-9.71c3.28-0.2,6.51,0.67,9.73-0.2c1.95-0.54,3.01-1.88,2.55-3.9c-1.44-6.28-9.74-5.35-14.65-3.11
					c1.56-2.78,6.15-10.51,1.5-10.95c-4.7-0.43-9.53,9.77-11.1,13.12c-2.3,4.92-4.6,11.72-2.43,16.63
					C1245.69,733.7,1248.93,727.85,1251.31,725.24z"/>
				<path class="st7" d="M1250.66,726.73c3.83-4.62,14.82-5.98,14.72-8.23c-0.21-4.57-9.01-3.51-13.32-2.04
					c3.26-2.83,9.65-7.94,7.68-11.44c-2.41-4.28-11.31,4.73-14.73,11.53c-4.3,8.58-1.8,13.63-0.17,14.09
					C1247.07,731.28,1250.03,727.49,1250.66,726.73z"/>
			</g>
		</g>
		<path class="st7" d="M1219.38,803.36l-9.57,73.14h58.25c-1.2-6.48-12.04-73.22-12.04-73.22L1219.38,803.36z"/>
	</g>
	<g>
		<path class="st6" d="M1129.35,876.75c217.99-0.61,462.52-0.62,680.51,0C1591.87,877.36,1347.34,877.36,1129.35,876.75
			L1129.35,876.75z"/>
	</g>
	<g>
		<g>
			<path class="st6" d="M1317.4,620.73l-10.22-40.23l-80.75,20.52l-10.67-41.99l64.53-147.07l32.01-8.13l31.12,122.45l25.84-6.57
				l10.75,42.28l-25.84,6.57l10.22,40.23L1317.4,620.73z M1262.07,546.95l39.94-10.15l-13.21-51.97L1262.07,546.95z"/>
			<path class="st6" d="M1548.68,486.43c0,13.33-2.02,25.6-6.06,36.81c-4.04,11.21-9.6,20.91-16.67,29.09
				c-7.07,8.18-15.4,14.54-24.99,19.09c-9.6,4.54-20.05,6.82-31.36,6.82c-11.31,0-21.81-2.27-31.51-6.82
				c-9.7-4.54-18.08-10.91-25.15-19.09c-7.07-8.18-12.57-17.88-16.51-29.09c-3.94-11.21-5.91-23.48-5.91-36.81
				c0-13.33,1.97-25.6,5.91-36.81c3.94-11.21,9.44-20.91,16.51-29.09c7.07-8.18,15.45-14.59,25.15-19.24
				c9.7-4.64,20.2-6.97,31.51-6.97c11.31,0,21.76,2.32,31.36,6.97c9.59,4.65,17.92,11.06,24.99,19.24
				c7.07,8.18,12.62,17.88,16.67,29.09C1546.66,460.83,1548.68,473.1,1548.68,486.43z M1499.9,486.43c0-14.14-2.83-25.6-8.48-34.39
				c-5.66-8.79-12.93-13.18-21.81-13.18c-9.29,0-16.72,4.39-22.27,13.18c-5.56,8.79-8.33,20.25-8.33,34.39
				c0,14.14,2.77,25.55,8.33,34.24c5.55,8.69,12.98,13.03,22.27,13.03c8.89,0,16.16-4.34,21.81-13.03
				C1497.07,511.99,1499.9,500.57,1499.9,486.43z"/>
			<path class="st6" d="M1635.66,612.98l6.64-40.97l-82.25-13.32l6.93-42.77l117.75-109.22l32.6,5.28l-20.2,124.72l26.32,4.26
				l-6.98,43.07l-26.32-4.26l-6.64,40.97L1635.66,612.98z M1614.29,523.27l40.67,6.59l8.58-52.94L1614.29,523.27z"/>
		</g>
		<g>
			<path class="st6" d="M1401.55,365.14c-3.46,0-6.6-0.68-9.41-2.03c-2.82-1.35-5.23-3.15-7.25-5.39c-2.02-2.24-3.58-4.8-4.69-7.68
				c-1.11-2.88-1.66-5.83-1.66-8.85c0-3.15,0.59-6.16,1.76-9.05c1.17-2.88,2.79-5.43,4.86-7.65c2.06-2.22,4.51-3.98,7.35-5.29
				c2.84-1.31,5.92-1.96,9.25-1.96c3.41,0,6.53,0.7,9.35,2.1c2.82,1.4,5.22,3.23,7.22,5.49c2,2.26,3.55,4.83,4.66,7.72
				c1.11,2.88,1.66,5.81,1.66,8.78c0,3.15-0.58,6.15-1.73,9.01c-1.15,2.86-2.75,5.39-4.79,7.58c-2.04,2.2-4.48,3.95-7.32,5.26
				C1407.96,364.49,1404.88,365.14,1401.55,365.14z M1387.85,341.19c0,2.04,0.31,4.01,0.93,5.92c0.62,1.91,1.52,3.59,2.69,5.06
				c1.17,1.46,2.62,2.64,4.32,3.53c1.71,0.89,3.65,1.33,5.82,1.33c2.22,0,4.18-0.45,5.89-1.36c1.71-0.91,3.15-2.12,4.32-3.63
				c1.17-1.51,2.06-3.2,2.66-5.09c0.6-1.88,0.9-3.8,0.9-5.75c0-2.04-0.32-4.01-0.96-5.92c-0.64-1.91-1.55-3.59-2.73-5.06
				c-1.18-1.46-2.62-2.63-4.32-3.49c-1.71-0.86-3.63-1.3-5.75-1.3c-2.22,0-4.19,0.46-5.92,1.36c-1.73,0.91-3.17,2.11-4.32,3.59
				c-1.15,1.49-2.03,3.17-2.63,5.06C1388.15,337.32,1387.85,339.24,1387.85,341.19z"/>
			<path class="st6" d="M1446.92,365.47c-2.84,0-5.39-0.49-7.65-1.46c-2.26-0.97-4.18-2.29-5.75-3.96
				c-1.57-1.66-2.78-3.58-3.63-5.75c-0.84-2.17-1.26-4.46-1.26-6.85c0-2.44,0.42-4.74,1.26-6.92c0.84-2.17,2.05-4.09,3.63-5.75
				c1.57-1.66,3.49-2.98,5.75-3.96c2.26-0.97,4.81-1.46,7.65-1.46c2.84,0,5.38,0.49,7.62,1.46c2.24,0.98,4.15,2.29,5.72,3.96
				c1.57,1.66,2.78,3.58,3.63,5.75c0.84,2.17,1.26,4.48,1.26,6.92c0,2.39-0.42,4.68-1.26,6.85c-0.84,2.17-2.04,4.09-3.59,5.75
				c-1.55,1.66-3.46,2.98-5.72,3.96C1452.31,364.99,1449.76,365.47,1446.92,365.47z M1437.81,347.45c0,1.55,0.23,2.96,0.7,4.22
				c0.47,1.26,1.11,2.36,1.93,3.29c0.82,0.93,1.79,1.65,2.89,2.16c1.11,0.51,2.31,0.77,3.59,0.77c1.29,0,2.48-0.25,3.59-0.77
				c1.11-0.51,2.07-1.23,2.89-2.16c0.82-0.93,1.46-2.04,1.93-3.33c0.47-1.29,0.7-2.7,0.7-4.26c0-1.51-0.23-2.9-0.7-4.19
				c-0.47-1.29-1.11-2.39-1.93-3.33c-0.82-0.93-1.79-1.65-2.89-2.16c-1.11-0.51-2.31-0.77-3.59-0.77c-1.29,0-2.48,0.27-3.59,0.8
				c-1.11,0.53-2.07,1.26-2.89,2.2c-0.82,0.93-1.46,2.04-1.93,3.33C1438.04,344.54,1437.81,345.94,1437.81,347.45z"/>
			<path class="st6" d="M1492.02,365.47c-2.75,0-5.14-0.61-7.18-1.83c-2.04-1.22-3.64-2.87-4.79-4.96v20.29h-8.91v-49.03h7.78v5.99
				c1.29-2.04,2.95-3.65,4.99-4.82c2.04-1.17,4.39-1.76,7.05-1.76c2.35,0,4.52,0.48,6.52,1.43c2,0.95,3.71,2.24,5.16,3.86
				c1.44,1.62,2.57,3.53,3.39,5.72c0.82,2.2,1.23,4.51,1.23,6.95c0,2.53-0.38,4.9-1.13,7.12c-0.75,2.22-1.81,4.15-3.16,5.79
				c-1.35,1.64-2.96,2.93-4.82,3.86C1496.28,365.01,1494.24,365.47,1492.02,365.47z M1489.03,357.89c1.33,0,2.56-0.29,3.69-0.87
				c1.13-0.58,2.1-1.35,2.89-2.33c0.8-0.98,1.42-2.11,1.86-3.39c0.44-1.29,0.67-2.62,0.67-3.99c0-1.46-0.24-2.83-0.73-4.09
				c-0.49-1.26-1.16-2.36-2.03-3.29c-0.87-0.93-1.88-1.66-3.06-2.2c-1.18-0.53-2.45-0.8-3.82-0.8c-0.84,0-1.71,0.14-2.59,0.43
				c-0.89,0.29-1.71,0.7-2.46,1.23c-0.75,0.53-1.43,1.15-2.03,1.86c-0.6,0.71-1.05,1.49-1.36,2.33v8.18c0.8,2,2.02,3.65,3.66,4.96
				C1485.34,357.24,1487.12,357.89,1489.03,357.89z"/>
			<path class="st6" d="M1526.48,365.47c-2.93,0-5.79-0.47-8.58-1.4c-2.79-0.93-5.19-2.26-7.19-3.99l3.33-5.59
				c2.13,1.51,4.2,2.65,6.22,3.43c2.02,0.78,4.03,1.16,6.02,1.16c1.77,0,3.17-0.33,4.19-1c1.02-0.66,1.53-1.62,1.53-2.86
				s-0.6-2.15-1.8-2.73c-1.2-0.58-3.15-1.24-5.85-2c-2.26-0.62-4.19-1.22-5.79-1.8c-1.6-0.58-2.88-1.23-3.86-1.96
				c-0.98-0.73-1.69-1.57-2.13-2.53c-0.44-0.95-0.66-2.1-0.66-3.43c0-1.77,0.34-3.37,1.03-4.79c0.69-1.42,1.65-2.63,2.89-3.63
				c1.24-1,2.7-1.76,4.36-2.29c1.66-0.53,3.47-0.8,5.42-0.8c2.62,0,5.07,0.38,7.35,1.13c2.28,0.75,4.38,1.97,6.29,3.66l-3.59,5.39
				c-1.77-1.33-3.49-2.31-5.16-2.93c-1.66-0.62-3.31-0.93-4.95-0.93c-1.51,0-2.77,0.31-3.79,0.93c-1.02,0.62-1.53,1.62-1.53,2.99
				c0,0.62,0.12,1.13,0.37,1.53c0.24,0.4,0.63,0.75,1.16,1.06c0.53,0.31,1.23,0.61,2.1,0.9c0.87,0.29,1.94,0.59,3.23,0.9
				c2.39,0.62,4.44,1.24,6.15,1.86c1.71,0.62,3.1,1.33,4.19,2.13c1.09,0.8,1.88,1.72,2.4,2.76c0.51,1.04,0.76,2.3,0.76,3.76
				c0,3.42-1.26,6.11-3.79,8.08C1534.26,364.49,1530.82,365.47,1526.48,365.47z"/>
			<path class="st6" d="M1548.1,347.05v-29.94h8.91v29.94H1548.1z M1548.1,364.81v-10.05h8.91v10.05H1548.1z"/>
		</g>
	</g>
	<g>
		<g>
			<rect x="1445.05" y="762.63" class="st9" width="58.48" height="4.79"/>
			<rect x="1445.05" y="768.87" class="st9" width="58.48" height="4.79"/>
			<rect x="1445.05" y="775.11" class="st9" width="58.48" height="4.79"/>
			<rect x="1445.05" y="781.35" class="st9" width="58.48" height="4.79"/>
			<rect x="1445.05" y="787.59" class="st9" width="58.48" height="4.79"/>
		</g>
		<g>
			<rect x="1417.66" y="912.07" class="st9" width="111.18" height="4.79"/>
			<rect x="1417.66" y="918.31" class="st9" width="111.18" height="4.79"/>
			<rect x="1417.66" y="924.55" class="st9" width="111.18" height="4.79"/>
			<rect x="1417.66" y="930.79" class="st9" width="111.18" height="4.79"/>
			<rect x="1417.66" y="937.03" class="st9" width="111.18" height="4.79"/>
		</g>
		<g>
			<g>
				<path class="st7" d="M1368.88,723.03c0.06-0.65-24.33-8.82-24.33-8.82l1.44-83.8l32.34-6.94L1368.88,723.03z"/>
				<path class="st10" d="M1368.88,723.03c0.06-0.65-24.33-8.82-24.33-8.82l1.44-83.8l32.34-6.94L1368.88,723.03z"/>
			</g>
			<g>
				<path class="st7" d="M1592.26,755.93c0.17-0.63,25.88,0.1,25.88,0.1l27.48-79.17l-27.98-17.64L1592.26,755.93z"/>
				<path class="st10" d="M1592.26,755.93c0.17-0.63,25.88,0.1,25.88,0.1l27.48-79.17l-27.98-17.64L1592.26,755.93z"/>
			</g>
			<path class="st7" d="M1364.18,753.89c0,0,9.04-135.52,16.97-180.1c0,0,163.71,12.38,252.09,46.16c0,0-45.56,158.29-47.92,166.15
				C1585.33,786.1,1470.04,763.39,1364.18,753.89z"/>
			<g>
				<path class="st8" d="M1510.31,591.88c-2.66,16.32-5.35,32.63-8.14,48.92l-8.44,48.87l-0.46-0.69l54.85,13.03l27.4,6.64
					l27.37,6.77l-27.51-6.16l-27.48-6.29l-54.9-12.83l-0.56-0.13l0.1-0.56l8.74-48.82C1504.22,624.38,1507.25,608.13,1510.31,591.88
					z"/>
				<path class="st8" d="M1504.29,601.18c0.03,1.5-1.16,3.03-2.87,3.18c-0.83,0.08-1.73-0.19-2.41-0.77
					c-0.68-0.59-1.08-1.49-1.08-2.41c0-0.91,0.41-1.82,1.08-2.41c0.67-0.59,1.58-0.85,2.41-0.78
					C1503.13,598.15,1504.32,599.69,1504.29,601.18z M1504.29,601.18c-0.01-0.75-0.34-1.5-0.9-1.97c-0.56-0.48-1.3-0.67-1.97-0.59
					c-1.38,0.16-2.28,1.4-2.26,2.56c-0.02,1.16,0.87,2.41,2.26,2.57c0.67,0.08,1.41-0.12,1.97-0.6
					C1503.95,602.68,1504.29,601.94,1504.29,601.18z"/>
				<path class="st8" d="M1501.42,621.35c0.03,1.5-1.16,3.03-2.87,3.18c-0.83,0.08-1.73-0.19-2.41-0.77
					c-0.68-0.59-1.08-1.49-1.08-2.41c0-0.91,0.41-1.82,1.08-2.41c0.67-0.59,1.58-0.85,2.41-0.78
					C1500.26,618.32,1501.45,619.86,1501.42,621.35z M1501.42,621.35c-0.01-0.75-0.34-1.5-0.9-1.97c-0.56-0.48-1.3-0.67-1.97-0.59
					c-1.38,0.16-2.28,1.4-2.26,2.56c-0.02,1.16,0.87,2.41,2.26,2.57c0.67,0.08,1.41-0.12,1.97-0.6
					C1501.08,622.85,1501.41,622.1,1501.42,621.35z"/>
				<path class="st8" d="M1497.88,642.66c0.03,1.5-1.16,3.03-2.87,3.18c-0.83,0.08-1.73-0.19-2.41-0.77
					c-0.68-0.59-1.08-1.49-1.08-2.41c0-0.91,0.41-1.82,1.08-2.41c0.67-0.59,1.58-0.85,2.41-0.78
					C1496.72,639.62,1497.91,641.16,1497.88,642.66z M1497.88,642.66c-0.01-0.75-0.34-1.5-0.9-1.97c-0.56-0.48-1.3-0.67-1.97-0.59
					c-1.38,0.16-2.28,1.4-2.26,2.56c-0.02,1.16,0.87,2.41,2.26,2.57c0.67,0.08,1.41-0.12,1.97-0.6
					C1497.54,644.15,1497.87,643.41,1497.88,642.66z"/>
				<path class="st8" d="M1494.34,663.96c0.03,1.5-1.16,3.03-2.87,3.18c-0.83,0.08-1.73-0.19-2.41-0.77
					c-0.68-0.59-1.08-1.49-1.08-2.41c0-0.91,0.41-1.82,1.08-2.41c0.67-0.59,1.58-0.85,2.41-0.78
					C1493.18,660.93,1494.37,662.47,1494.34,663.96z M1494.34,663.96c-0.01-0.75-0.34-1.5-0.9-1.97c-0.56-0.48-1.3-0.67-1.97-0.59
					c-1.38,0.16-2.28,1.4-2.26,2.56c-0.02,1.16,0.87,2.41,2.26,2.57c0.67,0.08,1.41-0.12,1.97-0.6
					C1494,665.46,1494.33,664.72,1494.34,663.96z"/>
				<path class="st8" d="M1506.4,697.94c0.03,1.5-1.16,3.03-2.87,3.18c-0.83,0.08-1.73-0.19-2.41-0.77
					c-0.68-0.59-1.08-1.49-1.08-2.41c0-0.91,0.41-1.82,1.08-2.41c0.67-0.59,1.58-0.85,2.41-0.78
					C1505.24,694.91,1506.43,696.45,1506.4,697.94z M1506.4,697.94c-0.01-0.75-0.34-1.5-0.9-1.97c-0.56-0.48-1.3-0.67-1.97-0.59
					c-1.38,0.16-2.28,1.4-2.26,2.56c-0.02,1.16,0.87,2.41,2.26,2.57c0.67,0.08,1.41-0.12,1.97-0.6
					C1506.06,699.44,1506.39,698.7,1506.4,697.94z"/>
				<path class="st8" d="M1526.51,702.85c0.03,1.5-1.16,3.03-2.87,3.18c-0.83,0.08-1.73-0.19-2.41-0.77
					c-0.68-0.59-1.08-1.49-1.08-2.41c0-0.91,0.41-1.82,1.08-2.41c0.67-0.59,1.58-0.85,2.41-0.78
					C1525.35,699.81,1526.54,701.35,1526.51,702.85z M1526.51,702.85c-0.01-0.75-0.34-1.5-0.9-1.97c-0.56-0.48-1.3-0.67-1.97-0.59
					c-1.38,0.16-2.28,1.4-2.26,2.56c-0.02,1.16,0.87,2.41,2.26,2.57c0.67,0.08,1.41-0.12,1.97-0.6
					C1526.17,704.34,1526.51,703.6,1526.51,702.85z"/>
				<path class="st8" d="M1546.63,707.76c0.03,1.5-1.16,3.03-2.87,3.18c-0.83,0.08-1.73-0.19-2.41-0.77
					c-0.68-0.59-1.08-1.49-1.08-2.41c0-0.91,0.41-1.82,1.08-2.41c0.67-0.59,1.58-0.85,2.41-0.78
					C1545.46,704.72,1546.66,706.26,1546.63,707.76z M1546.63,707.76c-0.01-0.75-0.34-1.5-0.9-1.97c-0.56-0.48-1.3-0.67-1.97-0.59
					c-1.38,0.16-2.28,1.4-2.26,2.56c-0.02,1.16,0.87,2.41,2.26,2.57c0.67,0.08,1.41-0.12,1.97-0.6
					C1546.28,709.25,1546.62,708.51,1546.63,707.76z"/>
				<path class="st8" d="M1566.74,712.66c0.03,1.5-1.16,3.03-2.87,3.18c-0.83,0.08-1.73-0.19-2.41-0.77
					c-0.68-0.59-1.08-1.49-1.08-2.41c0-0.91,0.41-1.82,1.08-2.41c0.67-0.59,1.58-0.85,2.41-0.78
					C1565.58,709.63,1566.77,711.17,1566.74,712.66z M1566.74,712.66c-0.01-0.75-0.34-1.5-0.9-1.97c-0.56-0.48-1.3-0.67-1.97-0.59
					c-1.38,0.16-2.28,1.4-2.26,2.56c-0.02,1.16,0.87,2.41,2.26,2.57c0.67,0.08,1.41-0.12,1.97-0.6
					C1566.4,714.16,1566.73,713.42,1566.74,712.66z"/>
				<path class="st8" d="M1586.84,717.79c-0.08,1.49-1.39,2.93-3.11,2.95c-0.83,0.01-1.71-0.32-2.34-0.96
					c-0.63-0.64-0.96-1.57-0.9-2.48c0.07-0.91,0.54-1.78,1.26-2.32c0.72-0.54,1.64-0.73,2.46-0.59
					C1585.92,714.67,1586.99,716.3,1586.84,717.79z M1586.84,717.79c0.05-0.75-0.23-1.52-0.75-2.04c-0.52-0.52-1.25-0.77-1.92-0.74
					c-1.39,0.05-2.38,1.22-2.45,2.38c-0.11,1.16,0.69,2.47,2.05,2.73c0.66,0.13,1.41-0.01,2.01-0.44
					C1586.39,719.25,1586.78,718.54,1586.84,717.79z"/>
				<path class="st8" d="M1490.8,685.27c0.03,1.5-1.16,3.03-2.87,3.18c-0.83,0.08-1.73-0.19-2.41-0.77
					c-0.68-0.59-1.08-1.49-1.08-2.41c0-0.91,0.41-1.82,1.08-2.41c0.67-0.59,1.58-0.85,2.41-0.78
					C1489.64,682.24,1490.83,683.77,1490.8,685.27z M1490.8,685.27c-0.01-0.75-0.34-1.5-0.9-1.97c-0.56-0.48-1.3-0.67-1.97-0.59
					c-1.38,0.16-2.28,1.4-2.26,2.56c-0.02,1.16,0.87,2.41,2.26,2.57c0.67,0.08,1.41-0.12,1.97-0.6
					C1490.46,686.77,1490.79,686.02,1490.8,685.27z"/>
			</g>
			<g>
				<g>
					
						<ellipse transform="matrix(0.7071 -0.7071 0.7071 0.7071 -67.4528 1209.1567)" class="st10" cx="1425.85" cy="686" rx="46.49" ry="46.49"/>
					
						<ellipse transform="matrix(0.354 -0.9352 0.9352 0.354 279.501 1776.6578)" class="st6" cx="1425.85" cy="686" rx="37.28" ry="37.28"/>
					<g>
						
							<rect x="1414.12" y="671.56" transform="matrix(0.9871 0.1599 -0.1599 0.9871 126.3591 -218.1541)" class="st7" width="8.83" height="8.83"/>
						
							<rect x="1406.82" y="661.43" transform="matrix(0.9871 0.1599 -0.1599 0.9871 124.6454 -217.1164)" class="st7" width="8.83" height="8.83"/>
						
							<rect x="1441.68" y="667.08" transform="matrix(0.9871 0.1599 -0.1599 0.9871 125.9974 -222.6193)" class="st7" width="8.83" height="8.83"/>
						
							<rect x="1401.2" y="696.1" transform="matrix(0.9871 0.1599 -0.1599 0.9871 130.1172 -215.772)" class="st7" width="8.83" height="8.83"/>
						
							<rect x="1436.06" y="701.74" transform="matrix(0.9871 0.1599 -0.1599 0.9871 131.4693 -221.2749)" class="st7" width="8.83" height="8.83"/>
						
							<rect x="1411.33" y="688.79" transform="matrix(0.9871 0.1599 -0.1599 0.9871 129.0795 -217.4858)" class="st7" width="8.83" height="8.83"/>
						
							<rect x="1421.44" y="681.59" transform="matrix(0.9871 0.1599 -0.1599 0.9871 128.0573 -219.1957)" class="st7" width="8.83" height="8.83"/>
						
							<rect x="1431.55" y="674.38" transform="matrix(0.9871 0.1599 -0.1599 0.9871 127.0351 -220.9056)" class="st7" width="8.83" height="8.83"/>
						
							<rect x="1428.76" y="691.62" transform="matrix(0.9871 0.1599 -0.1599 0.9871 129.7724 -220.2612)" class="st7" width="8.83" height="8.83"/>
					</g>
				</g>
				<g>
					<g>
						
							<ellipse transform="matrix(0.6338 -0.7735 0.7735 0.6338 22.1228 1457.6965)" class="st7" cx="1550.61" cy="705.48" rx="46.49" ry="46.49"/>
						
							<ellipse transform="matrix(0.6338 -0.7735 0.7735 0.6338 22.1228 1457.6965)" class="st10" cx="1550.61" cy="705.48" rx="46.49" ry="46.49"/>
						<path class="st10" d="M1595.84,716.24c-0.21,0.92-0.46,1.8-0.73,2.68l-90.62-19.33c0.21-1.62,0.5-3.23,0.88-4.87
							c5.93-24.97,31-40.41,55.99-34.48C1586.34,666.19,1601.77,691.25,1595.84,716.24z"/>
					</g>
					
						<ellipse transform="matrix(0.9227 -0.3855 0.3855 0.9227 -152.115 652.3173)" class="st6" cx="1550.61" cy="705.48" rx="37.28" ry="37.28"/>
					<g>
						
							<rect x="1546.19" y="683.51" transform="matrix(0.9729 0.2312 -0.2312 0.9729 205.1406 -339.4132)" class="st7" width="8.83" height="43.95"/>
					</g>
					<g>
						<path class="st7" d="M1598.54,715.37l-95.18-22.62c6.25-26.28,32.62-42.52,58.9-36.27
							C1588.53,662.72,1604.78,689.09,1598.54,715.37z"/>
						<path class="st10" d="M1598.54,715.37l-95.18-22.62c6.25-26.28,32.62-42.52,58.9-36.27
							C1588.53,662.72,1604.78,689.09,1598.54,715.37z"/>
					</g>
				</g>
				<path class="st8" d="M1469.72,733.12c0.24-3.72,1.61-7.49,4.3-10.47c1.33-1.5,3.1-2.68,5.05-3.4c1.96-0.72,4.08-0.85,6.09-0.68
					c2.05,0.24,4.14,0.96,5.84,2.25c1.67,1.32,2.96,3.03,3.71,4.88c1.55,3.69,1.72,7.62,0.97,11.28c-0.62-3.65-1.56-7.2-3.28-10.11
					c-1.7-2.93-4.39-4.76-7.6-5.04c-3.27-0.41-6.46,0.47-9.03,2.64C1473.21,726.65,1471.25,729.75,1469.72,733.12z"/>
			</g>
			<g>
				<path class="st2" d="M1376.92,638.3c0.39-4.97,0.94-9.91,1.41-14.86c0.53-4.95,1.07-9.89,1.67-14.83
					c0.57-4.94,1.22-9.87,1.85-14.8c0.62-4.93,1.33-9.85,2-14.78l0.18-1.32l1.33,0.08c10.73,0.67,21.43,1.54,32.12,2.64
					c5.34,0.55,10.68,1.17,16.01,1.85c5.32,0.76,10.65,1.47,15.94,2.44l-32.14-1.99l-32.11-2.08l1.51-1.23
					c-0.73,4.92-1.41,9.84-2.18,14.76c-0.76,4.91-1.51,9.83-2.33,14.73c-0.79,4.91-1.64,9.81-2.5,14.71
					C1378.76,628.51,1377.92,633.42,1376.92,638.3z"/>
				<path class="st2" d="M1384.65,675.87c1.08-5.97,3.79-11.66,7.44-16.62c0.91-1.25,1.94-2.4,2.93-3.58
					c1.07-1.11,2.19-2.18,3.3-3.27c1.2-0.98,2.42-1.95,3.65-2.89c1.31-0.83,2.61-1.7,3.94-2.5c1.41-0.67,2.8-1.37,4.22-2.01
					l4.42-1.53l4.57-0.94c1.53-0.22,3.09-0.27,4.63-0.39c6.2-0.16,12.3,1.16,17.9,3.43c-5.96-1.12-11.9-1.74-17.75-1.18
					c-5.84,0.54-11.51,2.29-16.59,5.15c-5.11,2.79-9.64,6.64-13.47,11.11C1390.04,665.15,1386.88,670.24,1384.65,675.87z"/>
				<path class="st2" d="M1512.89,688.43c1.89-5.76,5.37-11.03,9.66-15.43c1.07-1.11,2.25-2.11,3.4-3.14
					c1.22-0.95,2.47-1.86,3.72-2.79c1.33-0.8,2.66-1.6,4.02-2.36c1.42-0.64,2.82-1.32,4.25-1.93c1.49-0.47,2.96-0.97,4.46-1.41
					l4.59-0.9l4.66-0.3c1.55-0.01,3.1,0.16,4.64,0.26c6.16,0.7,12.02,2.85,17.25,5.87c-5.75-1.93-11.54-3.36-17.42-3.62
					c-5.86-0.27-11.72,0.68-17.14,2.81c-5.45,2.06-10.47,5.25-14.87,9.15C1519.7,678.56,1515.88,683.16,1512.89,688.43z"/>
			</g>
		</g>
		<g>
			<g>
				<g>
					<path class="st7" d="M1369.39,837.41c-11.91,0-37.98-2.68-54.76-24.25c-21.46-27.6-13.71-80.55-13.37-82.79l9.32,1.42
						c-0.08,0.51-7.48,51.2,11.49,75.59c18.55,23.85,52.19,20.42,52.53,20.38l1.06,9.37
						C1375.29,837.16,1372.98,837.41,1369.39,837.41z"/>
					<path class="st11" d="M1369.39,837.41c-11.91,0-37.98-2.68-54.76-24.25c-21.46-27.6-13.71-80.55-13.37-82.79l9.32,1.42
						c-0.08,0.51-7.48,51.2,11.49,75.59c18.55,23.85,52.19,20.42,52.53,20.38l1.06,9.37
						C1375.29,837.16,1372.98,837.41,1369.39,837.41z"/>
				</g>
				<path class="st7" d="M1313.32,738.2c-1.7,0-3.43-0.14-5.2-0.43c-15.72-2.55-22.68-11.95-25.75-19.4
					c-3.08-7.46-3.79-16.48-2.11-26.82l19.94,3.23c-1.04,6.4-0.74,12.05,0.85,15.89c1.13,2.74,3.32,6.03,10.31,7.16
					c3.19,0.52,6.64,0.24,10.25-5.21c2.79-4.21,4.46-9.93,5.05-13.56l19.94,3.23c-0.46,2.85-2.42,12.83-8.15,21.49
					C1332.19,733.2,1323.41,738.2,1313.32,738.2z"/>
				<g>
					<path class="st7" d="M1389.08,864.38c-0.03-0.43-16.89-3.12-16.89-3.12l-8.18-55.01l20.41-8.06L1389.08,864.38z"/>
					<path class="st10" d="M1389.08,864.38c-0.03-0.43-16.89-3.12-16.89-3.12l-8.18-55.01l20.41-8.06L1389.08,864.38z"/>
				</g>
			</g>
			<g>
				<path class="st7" d="M1555.72,864.48c0.04-0.43,16.95-2.75,16.95-2.75l9.39-54.82l-20.23-8.51L1555.72,864.48z"/>
				<path class="st10" d="M1555.72,864.48c0.04-0.43,16.95-2.75,16.95-2.75l9.39-54.82l-20.23-8.51L1555.72,864.48z"/>
			</g>
			<path class="st7" d="M1382.06,785.87c0,0,136.32-5.83,182.38,1.85c0,0-13.52,131.91-14.25,134.47c0,0-135.61-0.37-156.81,0
				C1393.38,922.18,1381.89,834.47,1382.06,785.87z"/>
			<g>
				<path class="st10" d="M1423.47,822.01c0,0,74.42-2.94,99.56,0.93c0,0-7.38,66.52-7.78,67.81c0,0-74.03-0.18-85.6,0
					C1429.65,890.75,1424.56,845.23,1423.47,822.01z"/>
				<path class="st10" d="M1433.64,890.72c-1.7,0-3.06,0.02-4,0.03c0,0-5.08-45.53-6.18-68.75c0,0,1.69-0.07,4.65-0.16
					L1433.64,890.72z"/>
				<g>
					<g>
						<g>
							<g>
								<path class="st7" d="M1455.6,838.43c-4.17-1.31-8.62,1-9.93,5.17c-1.32,4.18,1,8.62,5.17,9.93c4.17,1.31,8.61-1,9.92-5.17
									C1462.08,844.19,1459.76,839.74,1455.6,838.43z M1459.84,848.07c-1.15,3.67-5.06,5.7-8.72,4.54
									c-3.66-1.15-5.69-5.05-4.54-8.72c1.15-3.66,5.05-5.69,8.72-4.54C1458.96,840.5,1461,844.4,1459.84,848.07z M1455.6,838.43
									c-4.17-1.31-8.62,1-9.93,5.17c-1.32,4.18,1,8.62,5.17,9.93c4.17,1.31,8.61-1,9.92-5.17
									C1462.08,844.19,1459.76,839.74,1455.6,838.43z M1459.84,848.07c-1.15,3.67-5.06,5.7-8.72,4.54
									c-3.66-1.15-5.69-5.05-4.54-8.72c1.15-3.66,5.05-5.69,8.72-4.54C1458.96,840.5,1461,844.4,1459.84,848.07z M1455.6,838.43
									c-4.17-1.31-8.62,1-9.93,5.17c-1.32,4.18,1,8.62,5.17,9.93c4.17,1.31,8.61-1,9.92-5.17
									C1462.08,844.19,1459.76,839.74,1455.6,838.43z M1459.84,848.07c-1.15,3.67-5.06,5.7-8.72,4.54
									c-3.66-1.15-5.69-5.05-4.54-8.72c1.15-3.66,5.05-5.69,8.72-4.54C1458.96,840.5,1461,844.4,1459.84,848.07z M1458.23,830.07
									c-8.79-2.77-18.16,2.12-20.93,10.9c-2.77,8.79,2.11,18.16,10.9,20.93c8.78,2.77,18.16-2.11,20.92-10.9
									C1471.9,842.21,1467.02,832.83,1458.23,830.07z M1461.94,848.73c-1.52,4.81-6.66,7.49-11.47,5.98
									c-4.81-1.52-7.49-6.66-5.97-11.47c1.52-4.81,6.66-7.49,11.47-5.97C1460.77,838.77,1463.45,843.92,1461.94,848.73z
									 M1460.76,848.36c1.31-4.17-1-8.61-5.17-9.93c-4.17-1.31-8.62,1-9.93,5.17c-1.32,4.18,1,8.62,5.17,9.93
									C1455.01,854.84,1459.45,852.53,1460.76,848.36z M1459.84,848.07c-1.15,3.67-5.06,5.7-8.72,4.54
									c-3.66-1.15-5.69-5.05-4.54-8.72c1.15-3.66,5.05-5.69,8.72-4.54C1458.96,840.5,1461,844.4,1459.84,848.07z M1455.6,838.43
									c-4.17-1.31-8.62,1-9.93,5.17c-1.32,4.18,1,8.62,5.17,9.93c4.17,1.31,8.61-1,9.92-5.17
									C1462.08,844.19,1459.76,839.74,1455.6,838.43z M1459.84,848.07c-1.15,3.67-5.06,5.7-8.72,4.54
									c-3.66-1.15-5.69-5.05-4.54-8.72c1.15-3.66,5.05-5.69,8.72-4.54C1458.96,840.5,1461,844.4,1459.84,848.07z M1455.6,838.43
									c-4.17-1.31-8.62,1-9.93,5.17c-1.32,4.18,1,8.62,5.17,9.93c4.17,1.31,8.61-1,9.92-5.17
									C1462.08,844.19,1459.76,839.74,1455.6,838.43z M1459.84,848.07c-1.15,3.67-5.06,5.7-8.72,4.54
									c-3.66-1.15-5.69-5.05-4.54-8.72c1.15-3.66,5.05-5.69,8.72-4.54C1458.96,840.5,1461,844.4,1459.84,848.07z"/>
								<g>
									<polygon class="st7" points="1451.47,862.19 1445.35,860.27 1444.32,864.7 1449.77,866.42 									"/>
									<polygon class="st7" points="1440.47,856.46 1437.51,850.77 1433.65,853.19 1436.28,858.25 									"/>
									<polygon class="st7" points="1436.75,844.64 1438.68,838.52 1434.24,837.49 1432.53,842.93 									"/>
									<polygon class="st7" points="1442.48,833.64 1448.17,830.68 1445.76,826.81 1440.7,829.45 									"/>
									<polygon class="st7" points="1454.31,829.92 1460.43,831.84 1461.45,827.41 1456.01,825.69 									"/>
									<polygon class="st7" points="1465.3,835.65 1468.27,841.34 1472.13,838.92 1469.5,833.86 									"/>
									<polygon class="st7" points="1469.03,847.47 1467.1,853.59 1471.54,854.62 1473.25,849.18 									"/>
									<polygon class="st7" points="1463.3,858.47 1457.61,861.43 1460.02,865.3 1465.08,862.66 									"/>
								</g>
							</g>
						</g>
					</g>
				</g>
				<g>
					<g>
						<g>
							<g>
								<path class="st12" d="M1482.5,861.71c-2.47-1.61-5.77-0.91-7.37,1.56c-1.61,2.47-0.91,5.77,1.56,7.38
									c2.47,1.61,5.76,0.91,7.37-1.56C1485.66,866.62,1484.97,863.32,1482.5,861.71z M1483.52,868.73
									c-1.41,2.17-4.31,2.78-6.47,1.37c-2.17-1.41-2.78-4.31-1.37-6.48c1.41-2.17,4.31-2.78,6.48-1.37
									C1484.31,863.67,1484.93,866.56,1483.52,868.73z M1482.5,861.71c-2.47-1.61-5.77-0.91-7.37,1.56
									c-1.61,2.47-0.91,5.77,1.56,7.38c2.47,1.61,5.76,0.91,7.37-1.56C1485.66,866.62,1484.97,863.32,1482.5,861.71z
									 M1483.52,868.73c-1.41,2.17-4.31,2.78-6.47,1.37c-2.17-1.41-2.78-4.31-1.37-6.48c1.41-2.17,4.31-2.78,6.48-1.37
									C1484.31,863.67,1484.93,866.56,1483.52,868.73z M1482.5,861.71c-2.47-1.61-5.77-0.91-7.37,1.56
									c-1.61,2.47-0.91,5.77,1.56,7.38c2.47,1.61,5.76,0.91,7.37-1.56C1485.66,866.62,1484.97,863.32,1482.5,861.71z
									 M1483.52,868.73c-1.41,2.17-4.31,2.78-6.47,1.37c-2.17-1.41-2.78-4.31-1.37-6.48c1.41-2.17,4.31-2.78,6.48-1.37
									C1484.31,863.67,1484.93,866.56,1483.52,868.73z M1485.73,856.77c-5.2-3.39-12.16-1.91-15.54,3.28
									c-3.38,5.2-1.92,12.16,3.28,15.54c5.2,3.38,12.16,1.91,15.54-3.29C1492.39,867.11,1490.92,860.15,1485.73,856.77z
									 M1484.75,869.54c-1.85,2.85-5.67,3.66-8.52,1.8c-2.84-1.85-3.65-5.67-1.8-8.52c1.85-2.85,5.68-3.65,8.52-1.8
									C1485.8,862.87,1486.61,866.69,1484.75,869.54z M1484.06,869.08c1.61-2.47,0.91-5.77-1.55-7.37
									c-2.47-1.61-5.77-0.91-7.37,1.56c-1.61,2.47-0.91,5.77,1.56,7.38C1479.15,872.25,1482.45,871.55,1484.06,869.08z
									 M1483.52,868.73c-1.41,2.17-4.31,2.78-6.47,1.37c-2.17-1.41-2.78-4.31-1.37-6.48c1.41-2.17,4.31-2.78,6.48-1.37
									C1484.31,863.67,1484.93,866.56,1483.52,868.73z M1482.5,861.71c-2.47-1.61-5.77-0.91-7.37,1.56
									c-1.61,2.47-0.91,5.77,1.56,7.38c2.47,1.61,5.76,0.91,7.37-1.56C1485.66,866.62,1484.97,863.32,1482.5,861.71z
									 M1483.52,868.73c-1.41,2.17-4.31,2.78-6.47,1.37c-2.17-1.41-2.78-4.31-1.37-6.48c1.41-2.17,4.31-2.78,6.48-1.37
									C1484.31,863.67,1484.93,866.56,1483.52,868.73z M1482.5,861.71c-2.47-1.61-5.77-0.91-7.37,1.56
									c-1.61,2.47-0.91,5.77,1.56,7.38c2.47,1.61,5.76,0.91,7.37-1.56C1485.66,866.62,1484.97,863.32,1482.5,861.71z
									 M1483.52,868.73c-1.41,2.17-4.31,2.78-6.47,1.37c-2.17-1.41-2.78-4.31-1.37-6.48c1.41-2.17,4.31-2.78,6.48-1.37
									C1484.31,863.67,1484.93,866.56,1483.52,868.73z"/>
								<g>
									<polygon class="st12" points="1475.53,876.38 1471.91,874.02 1470.44,876.71 1473.66,878.81 									"/>
									<polygon class="st12" points="1469.44,870.67 1468.54,866.45 1465.6,867.31 1466.4,871.07 									"/>
									<polygon class="st12" points="1469.16,862.33 1471.52,858.71 1468.82,857.24 1466.73,860.46 									"/>
									<polygon class="st12" points="1474.86,856.23 1479.09,855.34 1478.22,852.4 1474.47,853.19 									"/>
									<polygon class="st12" points="1483.21,855.96 1486.83,858.32 1488.3,855.62 1485.08,853.53 									"/>
									<polygon class="st12" points="1489.3,861.66 1490.2,865.89 1493.14,865.02 1492.34,861.27 									"/>
									<polygon class="st12" points="1489.58,870.01 1487.22,873.63 1489.91,875.09 1492.01,871.88 									"/>
									<polygon class="st12" points="1483.87,876.1 1479.65,876.99 1480.51,879.94 1484.27,879.14 									"/>
								</g>
							</g>
						</g>
					</g>
				</g>
			</g>
			<g>
				<polygon class="st7" points="1561.15,906.83 1566.39,907.81 1581.37,806.33 1575.4,805.23 				"/>
				<g>
					<path class="st7" d="M1515.25,890.75l7.78-67.81l52.37-17.72c0,0-14.25,102.7-14.25,101.6L1515.25,890.75z"/>
					<path class="st11" d="M1515.25,890.75l7.78-67.81l52.37-17.72c0,0-14.25,102.7-14.25,101.6L1515.25,890.75z"/>
				</g>
			</g>
			<path class="st2" d="M1388.32,825.69c-0.85-5.62-1.31-11.28-1.66-16.95c-0.16-2.84-0.23-5.67-0.3-8.51
				c-0.06-2.84-0.11-5.68-0.02-8.52l0.02-0.75l0.73-0.04c10.4-0.56,20.8-1.24,31.21-1.7c10.41-0.51,20.82-0.98,31.23-1.31
				c-10.38,0.94-20.77,1.74-31.16,2.49c-10.39,0.81-20.79,1.39-31.18,2.1l0.75-0.78l-0.04,8.48l0.1,8.48
				c0.01,2.83,0.07,5.66,0.15,8.49L1388.32,825.69z"/>
			<path class="st2" d="M1530.34,823.94c3.24-1.54,6.54-2.97,9.87-4.3c3.32-1.35,6.68-2.63,10.07-3.81c3.4-1.16,6.81-2.3,10.28-3.26
				c3.46-0.98,6.96-1.88,10.53-2.46l0.88-0.14l-0.16,0.84c-0.82,4.39-1.68,8.77-2.7,13.13c0.38-4.46,0.92-8.89,1.49-13.32l0.72,0.69
				c-3.46,0.82-6.89,1.79-10.31,2.8c-3.42,1.02-6.83,2.1-10.23,3.21L1530.34,823.94z"/>
			<g>
				<polygon class="st8" points="1410.98,786.14 1411.87,803.1 1412.62,820.07 1413.93,854 1414.95,887.95 1415.36,904.92 
					1415.64,921.91 1414.76,904.95 1414,887.98 1412.7,854.05 1411.68,820.1 1411.27,803.12 				"/>
				<path class="st8" d="M1406.13,796.37c0.33,1.46-0.54,3.2-2.19,3.69c-0.8,0.24-1.73,0.16-2.51-0.28
					c-0.78-0.44-1.35-1.25-1.54-2.15c-0.18-0.9,0.04-1.87,0.58-2.58c0.54-0.71,1.38-1.15,2.21-1.24
					C1404.39,793.62,1405.86,794.9,1406.13,796.37z M1406.13,796.37c-0.16-0.74-0.63-1.4-1.28-1.75c-0.65-0.36-1.41-0.4-2.05-0.19
					c-1.32,0.43-1.96,1.82-1.71,2.96c0.21,1.15,1.33,2.19,2.72,2.07c0.67-0.06,1.36-0.39,1.82-0.97
					C1406.09,797.9,1406.27,797.11,1406.13,796.37z"/>
				<path class="st8" d="M1407.29,816.7c0.33,1.46-0.54,3.2-2.19,3.69c-0.8,0.24-1.73,0.16-2.51-0.28
					c-0.78-0.44-1.35-1.25-1.54-2.15c-0.18-0.9,0.04-1.87,0.58-2.58c0.54-0.71,1.38-1.15,2.21-1.24
					C1405.56,813.96,1407.03,815.23,1407.29,816.7z M1407.29,816.7c-0.16-0.74-0.63-1.4-1.28-1.75c-0.65-0.36-1.41-0.4-2.05-0.19
					c-1.32,0.43-1.96,1.82-1.71,2.96c0.21,1.15,1.33,2.19,2.72,2.07c0.67-0.06,1.36-0.39,1.82-0.97
					C1407.26,818.24,1407.44,817.44,1407.29,816.7z"/>
				<path class="st8" d="M1408.03,838.29c0.33,1.46-0.54,3.2-2.19,3.69c-0.8,0.24-1.73,0.16-2.51-0.28
					c-0.78-0.44-1.35-1.25-1.54-2.15c-0.18-0.9,0.04-1.87,0.58-2.58c0.54-0.71,1.38-1.15,2.21-1.24
					C1406.3,835.54,1407.77,836.82,1408.03,838.29z M1408.03,838.29c-0.16-0.74-0.63-1.4-1.28-1.75c-0.65-0.36-1.41-0.4-2.05-0.19
					c-1.32,0.43-1.96,1.82-1.71,2.96c0.21,1.15,1.33,2.19,2.72,2.07c0.67-0.06,1.36-0.39,1.82-0.97
					C1408,839.82,1408.18,839.03,1408.03,838.29z"/>
				<path class="st8" d="M1408.78,859.87c0.33,1.46-0.54,3.2-2.19,3.69c-0.8,0.24-1.73,0.16-2.51-0.28
					c-0.78-0.44-1.35-1.25-1.54-2.15c-0.18-0.9,0.04-1.87,0.58-2.58c0.54-0.71,1.38-1.15,2.21-1.24
					C1407.04,857.13,1408.51,858.4,1408.78,859.87z M1408.78,859.87c-0.16-0.74-0.63-1.4-1.28-1.75c-0.65-0.36-1.41-0.4-2.05-0.19
					c-1.32,0.43-1.96,1.82-1.71,2.96c0.21,1.15,1.33,2.19,2.72,2.07c0.67-0.06,1.36-0.39,1.82-0.97
					C1408.74,861.41,1408.92,860.61,1408.78,859.87z"/>
				<path class="st8" d="M1409.52,881.46c0.33,1.46-0.54,3.2-2.19,3.69c-0.8,0.24-1.73,0.16-2.51-0.28
					c-0.78-0.44-1.35-1.25-1.54-2.15c-0.18-0.9,0.04-1.87,0.58-2.58c0.54-0.71,1.38-1.15,2.21-1.24
					C1407.78,878.71,1409.25,879.99,1409.52,881.46z M1409.52,881.46c-0.16-0.74-0.63-1.4-1.28-1.75c-0.65-0.36-1.41-0.4-2.05-0.19
					c-1.32,0.43-1.96,1.82-1.71,2.96c0.21,1.15,1.33,2.19,2.72,2.07c0.67-0.06,1.36-0.39,1.82-0.97
					C1409.48,882.99,1409.66,882.2,1409.52,881.46z"/>
				<path class="st8" d="M1410.26,903.05c0.33,1.46-0.54,3.2-2.19,3.69c-0.8,0.24-1.73,0.16-2.51-0.28
					c-0.78-0.44-1.35-1.25-1.54-2.15c-0.18-0.9,0.04-1.87,0.58-2.58c0.54-0.71,1.38-1.15,2.21-1.24
					C1408.52,900.3,1409.99,901.57,1410.26,903.05z M1410.26,903.05c-0.16-0.74-0.63-1.4-1.28-1.75c-0.65-0.36-1.41-0.4-2.05-0.19
					c-1.32,0.43-1.96,1.82-1.71,2.96c0.21,1.15,1.33,2.19,2.72,2.07c0.67-0.06,1.36-0.39,1.82-0.97
					C1410.22,904.58,1410.4,903.79,1410.26,903.05z"/>
			</g>
		</g>
		<g>
			
				<rect x="1339.4" y="947.54" transform="matrix(0.957 -0.29 0.29 0.957 -216.8845 441.1112)" class="st7" width="80.66" height="9.42"/>
			
				<rect x="1339.4" y="947.54" transform="matrix(0.957 -0.29 0.29 0.957 -216.8845 441.1112)" class="st11" width="80.66" height="9.42"/>
			
				<rect x="1372.89" y="945.26" transform="matrix(0.953 -0.3031 0.3031 0.953 -223.8213 462.3378)" class="st7" width="9.42" height="14"/>
			<g>
				<polygon class="st7" points="1341.86,981.68 1321.94,895.42 1261.82,909.68 1291.43,993.74 				"/>
				<g>
					<polygon class="st7" points="1355.2,977.29 1341.86,981.68 1321.94,895.42 1341.13,899.99 					"/>
					<polygon class="st10" points="1355.2,977.29 1341.86,981.68 1321.94,895.42 1341.13,899.99 					"/>
				</g>
			</g>
			<circle class="st7" cx="1418.32" cy="940.56" r="10.23"/>
		</g>
		<g>
			
				<rect x="1556.12" y="911.77" transform="matrix(0.292 -0.9564 0.9564 0.292 194.4307 2166.8582)" class="st7" width="9.42" height="80.66"/>
			
				<rect x="1556.12" y="911.77" transform="matrix(0.292 -0.9564 0.9564 0.292 194.4307 2166.8582)" class="st11" width="9.42" height="80.66"/>
			
				<rect x="1555.95" y="947.39" transform="matrix(0.3052 -0.9523 0.9523 0.3052 179.2308 2149.8682)" class="st7" width="14" height="9.42"/>
			<g>
				<polygon class="st7" points="1598.63,981.6 1618.74,895.39 1678.83,909.77 1649.05,993.77 				"/>
				<g>
					<polygon class="st7" points="1585.3,977.19 1598.63,981.6 1618.74,895.39 1599.54,899.92 					"/>
					<polygon class="st10" points="1585.3,977.19 1598.63,981.6 1618.74,895.39 1599.54,899.92 					"/>
				</g>
			</g>
			<path class="st7" d="M1512.03,940.3c-0.01,5.65,4.56,10.24,10.21,10.26c5.65,0.01,10.24-4.56,10.26-10.21
				c0.01-5.65-4.56-10.24-10.21-10.26C1516.63,930.08,1512.04,934.65,1512.03,940.3z"/>
		</g>
		<g>
			<g>
				<path class="st7" d="M1589.26,833.91c0.24-0.23,25.04-23.22,54.2-15.36c29.83,8.05,54.45,52.97,54.69,53.42l8.29-4.48
					c-1.08-1.99-26.76-48.95-60.53-58.04c-34.35-9.26-61.99,16.52-63.15,17.63L1589.26,833.91z"/>
				<path class="st11" d="M1589.26,833.91c0.24-0.23,25.04-23.22,54.2-15.36c29.83,8.05,54.45,52.97,54.69,53.42l8.29-4.48
					c-1.08-1.99-26.76-48.95-60.53-58.04c-34.35-9.26-61.99,16.52-63.15,17.63L1589.26,833.91z"/>
			</g>
			<path class="st7" d="M1687.16,917.2l17.86-9.43c-1.71-3.25-3.82-8.83-4.13-13.86c-0.4-6.53,2.19-8.82,5.05-10.33
				c6.26-3.3,9.99-1.99,12.54-0.49c3.58,2.11,7.22,6.44,10.25,12.17l17.86-9.43c-4.89-9.26-10.89-16.03-17.84-20.14
				c-6.93-4.09-18.16-7.41-32.24,0.03c-10.98,5.8-16.58,16.24-15.78,29.42C1681.36,905.51,1685.81,914.65,1687.16,917.2z"/>
		</g>
		<g>
			<path class="st6" d="M1593.02,802.45c3.87-2.67,7.83-5.19,11.81-7.69c3.97-2.51,8-4.91,12.03-7.31
				c4.05-2.37,8.11-4.73,12.23-6.98l6.18-3.38c2.09-1.07,4.15-2.2,6.27-3.23c-1.93,1.35-3.91,2.61-5.86,3.92l-5.95,3.77
				c-3.97,2.51-8,4.91-12.03,7.31c-4.05,2.36-8.11,4.73-12.23,6.98C1601.36,798.11,1597.24,800.36,1593.02,802.45z"/>
			<path class="st6" d="M1582.77,840.98c5.54,3.16,10.8,6.72,15.98,10.39c5.15,3.7,10.24,7.51,15.03,11.73
				c-5.55-3.16-10.8-6.72-15.98-10.39C1592.64,849,1587.56,845.19,1582.77,840.98z"/>
			<path class="st6" d="M1591.87,836.24c4.28,1.3,8.49,2.77,12.69,4.26c4.21,1.48,8.37,3.07,12.53,4.67
				c4.15,1.63,8.29,3.27,12.39,5.03l6.15,2.64c2.03,0.94,4.08,1.82,6.09,2.8c-2.14-0.63-4.25-1.37-6.38-2.05l-6.31-2.21
				c-4.21-1.48-8.37-3.07-12.53-4.67c-4.15-1.64-8.29-3.27-12.39-5.03C1600,839.94,1595.9,838.17,1591.87,836.24z"/>
			<path class="st6" d="M1604.02,806.06c4.1-1.07,8.23-1.95,12.37-2.81c4.13-0.88,8.29-1.63,12.44-2.38
				c4.16-0.71,8.32-1.42,12.51-2.01l6.28-0.87c2.1-0.23,4.2-0.52,6.31-0.7c-2.05,0.55-4.11,0.99-6.17,1.49l-6.2,1.32
				c-4.13,0.88-8.29,1.63-12.44,2.38c-4.16,0.71-8.32,1.42-12.51,2C1612.43,805.09,1608.24,805.66,1604.02,806.06z"/>
		</g>
	</g>
	<g>
		<g>
			<path class="st6" d="M1505.21,831.7c2.32-9.49,7.48-20.43,17.05-24.36c9.11-3.36,17.98,2.99,18.85,12.43
				c0.49,3.21-0.8,8.98-5.17,7.81c-4.01-2.19-3.88-10.78-3.74-14.79c0.72-10.11,4.38-21.01,12.98-27.09
				c5.71-3.95,13.12-4.93,19.85-3.72c10.19,1.93,18.62,9.29,24.1,17.79c-5.67-8.33-14.14-15.35-24.21-17.17
				c-10.1-1.8-20.74,2.05-26.02,11.11c-5.07,8.21-7.86,22.3-4.1,31.41c0.7,1.5,2.05,2.23,3.5,1.31c1.96-1.43,2.09-4.29,1.92-6.57
				c-0.77-8.89-9.14-15.01-17.75-11.92C1513.1,811.67,1507.69,822.42,1505.21,831.7L1505.21,831.7z"/>
		</g>
		<g>
			<path class="st6" d="M1353.04,874.38c6.89-12.28,24.48-17.37,34.77-6.2c4.69,5.01,7.49,11.91,7.11,18.83
				c-0.16,2.47-1.33,6.05-4.4,6.12c-1.86,0.06-3.83-0.87-4.59-2.64c-2.87-8.18,6.3-19.45,12.65-23.89
				c15.64-11.34,35.22-4.55,42.02,13.17c1.29,3.14,2.27,6.41,2.78,9.76c-1.59-8.2-5.39-16.32-11.83-21.79
				c-9.03-7.81-23.11-7.56-32.44-0.39c-6.28,4.71-12.5,12.34-12.81,20.46c0.04,1.58,0.61,3.2,1.98,3.89c1.27,0.66,3.1,0.8,4.15-0.36
				c2.93-3.81,1.49-9.9,0.01-14.14c-3.46-9.61-12.94-16.66-23.36-14.16C1362.53,864.46,1356.5,868.58,1353.04,874.38L1353.04,874.38
				z"/>
		</g>
		<g>
			<path class="st6" d="M1276.86,476.7c-0.2-9.59-2.89-21.34-11.09-27.2c-7.63-5.06-17.22-1.1-20.09,7.34
				c-0.71,2.18-1.26,4.98,0.3,6.84c1.19,1.23,2.67,0.86,3.71-0.44c5.82-7.91,6.49-22.32,3.52-31.48
				c-2.96-10.06-12.39-16.34-22.62-17c-10.22-0.64-20.12,4.16-27.61,10.89c7.35-6.94,17.3-12.08,27.65-11.52
				c6.82,0.43,13.79,3.16,18.39,8.35c8.74,10.11,8.65,27.66,2.89,39.21c-1.27,2.44-3.95,5.27-6.59,2.62
				c-2.81-3.61-0.35-9.16,2.06-12.34c4.24-5.87,12.87-7.15,18.74-3C1274.47,455.09,1276.86,466.92,1276.86,476.7L1276.86,476.7z"/>
		</g>
		<g>
			<path class="st6" d="M1640.48,562.6c-9.41-2.04-21.39-2.18-29.04,4.43c-6.7,6.24-5.09,16.49,2.45,21.24
				c1.95,1.2,4.55,2.39,6.72,1.31c1.47-0.87,1.46-2.39,0.44-3.71c-6.33-7.51-20.19-11.51-29.79-10.76
				c-10.47,0.53-18.78,8.23-21.81,18.03c-3.01,9.78-0.65,20.53,4.15,29.39c-5.03-8.76-7.71-19.64-4.75-29.57
				c2.01-6.54,6.29-12.67,12.41-15.94c11.87-6.14,28.91-1.96,38.8,6.34c2.08,1.8,4.2,5.08,1.01,7.02c-4.16,1.89-8.99-1.8-11.52-4.88
				c-4.72-5.49-3.95-14.19,1.46-18.93C1618.95,559.87,1630.93,560.31,1640.48,562.6L1640.48,562.6z"/>
		</g>
		<g>
			<path class="st6" d="M1538.53,456.06c-4.28-16.34,6.39-35.24,24.6-34.34c8.18,0.37,16.35,3.93,21.78,10.16
				c1.97,2.31,3.86,6.19,1.35,8.81c-1.52,1.58-3.95,2.42-6.05,1.55c-9.17-4.42-10.85-22.03-9.11-30.95
				c3.99-22.84,26.16-33.29,46.92-23.9c3.73,1.6,7.31,3.58,10.56,6.01c-6.6-4.62-14.33-7.86-22.36-8.73
				c-16.79-2.08-31.76,10.29-34.22,26.78c-1.46,9.17-0.33,21.26,6.18,28.34c1.33,1.29,3.19,2.26,5.04,1.7
				c1.69-0.51,3.4-1.96,3.32-3.87c-0.03-1.86-1.11-3.65-2.34-5.16c-5.19-6.01-13.22-9.51-21.12-9.92
				C1545.36,421.46,1534.7,440.09,1538.53,456.06L1538.53,456.06z"/>
		</g>
		<g>
			<g>
				<g>
					<g>
						<path class="st13" d="M1347.54,874.74c-3.69-1.16-7.62,0.89-8.78,4.57c-1.16,3.69,0.89,7.62,4.58,8.78
							c3.69,1.16,7.61-0.88,8.78-4.57C1353.27,879.83,1351.22,875.9,1347.54,874.74z M1351.3,883.26c-1.02,3.24-4.47,5.04-7.71,4.02
							c-3.24-1.02-5.04-4.47-4.02-7.71c1.02-3.24,4.47-5.04,7.71-4.02C1350.52,876.57,1352.32,880.02,1351.3,883.26z
							 M1347.54,874.74c-3.69-1.16-7.62,0.89-8.78,4.57c-1.16,3.69,0.89,7.62,4.58,8.78c3.69,1.16,7.61-0.88,8.78-4.57
							C1353.27,879.83,1351.22,875.9,1347.54,874.74z M1351.3,883.26c-1.02,3.24-4.47,5.04-7.71,4.02
							c-3.24-1.02-5.04-4.47-4.02-7.71c1.02-3.24,4.47-5.04,7.71-4.02C1350.52,876.57,1352.32,880.02,1351.3,883.26z
							 M1347.54,874.74c-3.69-1.16-7.62,0.89-8.78,4.57c-1.16,3.69,0.89,7.62,4.58,8.78c3.69,1.16,7.61-0.88,8.78-4.57
							C1353.27,879.83,1351.22,875.9,1347.54,874.74z M1351.3,883.26c-1.02,3.24-4.47,5.04-7.71,4.02
							c-3.24-1.02-5.04-4.47-4.02-7.71c1.02-3.24,4.47-5.04,7.71-4.02C1350.52,876.57,1352.32,880.02,1351.3,883.26z
							 M1349.87,867.34c-7.78-2.45-16.07,1.87-18.52,9.64c-2.45,7.77,1.87,16.06,9.64,18.51c7.77,2.45,16.06-1.87,18.51-9.64
							C1361.96,878.08,1357.64,869.79,1349.87,867.34z M1353.15,883.84c-1.34,4.26-5.89,6.63-10.15,5.29
							c-4.25-1.34-6.63-5.89-5.28-10.15c1.34-4.26,5.9-6.63,10.15-5.28C1352.12,875.04,1354.49,879.59,1353.15,883.84z
							 M1352.11,883.52c1.16-3.69-0.88-7.62-4.57-8.78c-3.69-1.16-7.62,0.89-8.78,4.57c-1.16,3.69,0.89,7.62,4.58,8.78
							C1347.02,889.26,1350.94,887.21,1352.11,883.52z M1351.3,883.26c-1.02,3.24-4.47,5.04-7.71,4.02
							c-3.24-1.02-5.04-4.47-4.02-7.71c1.02-3.24,4.47-5.04,7.71-4.02C1350.52,876.57,1352.32,880.02,1351.3,883.26z
							 M1347.54,874.74c-3.69-1.16-7.62,0.89-8.78,4.57c-1.16,3.69,0.89,7.62,4.58,8.78c3.69,1.16,7.61-0.88,8.78-4.57
							C1353.27,879.83,1351.22,875.9,1347.54,874.74z M1351.3,883.26c-1.02,3.24-4.47,5.04-7.71,4.02
							c-3.24-1.02-5.04-4.47-4.02-7.71c1.02-3.24,4.47-5.04,7.71-4.02C1350.52,876.57,1352.32,880.02,1351.3,883.26z
							 M1347.54,874.74c-3.69-1.16-7.62,0.89-8.78,4.57c-1.16,3.69,0.89,7.62,4.58,8.78c3.69,1.16,7.61-0.88,8.78-4.57
							C1353.27,879.83,1351.22,875.9,1347.54,874.74z M1351.3,883.26c-1.02,3.24-4.47,5.04-7.71,4.02
							c-3.24-1.02-5.04-4.47-4.02-7.71c1.02-3.24,4.47-5.04,7.71-4.02C1350.52,876.57,1352.32,880.02,1351.3,883.26z"/>
						<g>
							<polygon class="st13" points="1343.89,895.76 1338.47,894.05 1337.57,897.98 1342.38,899.5 							"/>
							<polygon class="st13" points="1334.16,890.69 1331.54,885.66 1328.12,887.79 1330.45,892.27 							"/>
							<polygon class="st13" points="1330.87,880.23 1332.57,874.81 1328.65,873.91 1327.13,878.72 							"/>
							<polygon class="st13" points="1335.94,870.5 1340.97,867.88 1338.84,864.46 1334.36,866.79 							"/>
							<polygon class="st13" points="1346.4,867.21 1351.81,868.91 1352.72,864.99 1347.91,863.47 							"/>
							<polygon class="st13" points="1356.13,872.28 1358.75,877.31 1362.16,875.17 1359.83,870.7 							"/>
							<polygon class="st13" points="1359.42,882.74 1357.71,888.15 1361.64,889.06 1363.16,884.24 							"/>
							<polygon class="st13" points="1354.35,892.47 1349.32,895.09 1351.45,898.5 1355.93,896.17 							"/>
						</g>
					</g>
				</g>
			</g>
		</g>
		<g>
			<g>
				<path class="st6" d="M1620.56,827.69c7.42-10,5.33-24.13-4.67-31.55c-10.01-7.43-24.14-5.33-31.56,4.67
					c-7.43,10.01-5.33,24.14,4.67,31.56C1599.01,839.78,1613.14,837.69,1620.56,827.69z M1610.91,820.52
					c-3.47,4.68-10.07,5.65-14.74,2.18c-4.68-3.47-5.65-10.07-2.18-14.74c3.47-4.67,10.06-5.65,14.74-2.18
					C1613.4,809.25,1614.38,815.85,1610.91,820.52z"/>
				<polygon class="st6" points="1593.05,834.19 1586.08,829.02 1582.81,834.24 1589,838.84 				"/>
				<polygon class="st6" points="1581.53,822 1580.26,813.42 1574.26,814.8 1575.38,822.43 				"/>
				<polygon class="st6" points="1582,805.24 1587.17,798.28 1581.96,795 1577.36,801.2 				"/>
				<polygon class="st6" points="1594.19,793.73 1602.77,792.46 1601.4,786.45 1593.76,787.58 				"/>
				<polygon class="st6" points="1610.95,794.2 1617.91,799.37 1621.19,794.15 1614.99,789.56 				"/>
				<polygon class="st6" points="1622.47,806.39 1623.74,814.97 1629.74,813.59 1628.61,805.96 				"/>
				<polygon class="st6" points="1621.99,823.15 1616.82,830.11 1622.04,833.39 1626.64,827.19 				"/>
				<polygon class="st6" points="1609.81,834.66 1601.22,835.93 1602.6,841.94 1610.23,840.81 				"/>
			</g>
			<path class="st6" d="M1594.37,815.32l4.79,6.04l7.63-1.13l2.83-7.17l-4.79-6.04l-7.63,1.13L1594.37,815.32z M1603.45,812.23
				c1.09,0.81,1.31,2.33,0.51,3.42c-0.8,1.08-2.33,1.31-3.42,0.51c-1.08-0.8-1.31-2.34-0.51-3.42
				C1600.84,811.65,1602.37,811.43,1603.45,812.23z"/>
		</g>
		<g>
			<g>
				<g>
					<g>
						<path class="st6" d="M1637.47,388.42c-3.23-1.02-6.67,0.78-7.69,4c-1.02,3.23,0.78,6.67,4,7.69c3.23,1.02,6.66-0.77,7.68-4
							C1642.49,392.88,1640.7,389.44,1637.47,388.42z M1640.76,395.89c-0.89,2.84-3.91,4.41-6.75,3.52
							c-2.83-0.89-4.41-3.91-3.51-6.75c0.89-2.83,3.91-4.41,6.75-3.51C1640.08,390.03,1641.66,393.05,1640.76,395.89z
							 M1637.47,388.42c-3.23-1.02-6.67,0.78-7.69,4c-1.02,3.23,0.78,6.67,4,7.69c3.23,1.02,6.66-0.77,7.68-4
							C1642.49,392.88,1640.7,389.44,1637.47,388.42z M1640.76,395.89c-0.89,2.84-3.91,4.41-6.75,3.52
							c-2.83-0.89-4.41-3.91-3.51-6.75c0.89-2.83,3.91-4.41,6.75-3.51C1640.08,390.03,1641.66,393.05,1640.76,395.89z
							 M1637.47,388.42c-3.23-1.02-6.67,0.78-7.69,4c-1.02,3.23,0.78,6.67,4,7.69c3.23,1.02,6.66-0.77,7.68-4
							C1642.49,392.88,1640.7,389.44,1637.47,388.42z M1640.76,395.89c-0.89,2.84-3.91,4.41-6.75,3.52
							c-2.83-0.89-4.41-3.91-3.51-6.75c0.89-2.83,3.91-4.41,6.75-3.51C1640.08,390.03,1641.66,393.05,1640.76,395.89z
							 M1639.52,381.95c-6.81-2.14-14.06,1.64-16.2,8.44c-2.14,6.8,1.63,14.06,8.44,16.2c6.8,2.14,14.05-1.64,16.2-8.44
							C1650.09,391.35,1646.31,384.09,1639.52,381.95z M1642.38,396.4c-1.17,3.73-5.16,5.8-8.88,4.63s-5.8-5.16-4.62-8.88
							c1.17-3.73,5.16-5.8,8.88-4.62C1641.48,388.69,1643.56,392.67,1642.38,396.4z M1641.47,396.11c1.02-3.23-0.77-6.67-4-7.69
							c-3.23-1.02-6.67,0.78-7.69,4c-1.02,3.23,0.78,6.67,4,7.69C1637.02,401.13,1640.46,399.34,1641.47,396.11z M1640.76,395.89
							c-0.89,2.84-3.91,4.41-6.75,3.52c-2.83-0.89-4.41-3.91-3.51-6.75c0.89-2.83,3.91-4.41,6.75-3.51
							C1640.08,390.03,1641.66,393.05,1640.76,395.89z M1637.47,388.42c-3.23-1.02-6.67,0.78-7.69,4c-1.02,3.23,0.78,6.67,4,7.69
							c3.23,1.02,6.66-0.77,7.68-4C1642.49,392.88,1640.7,389.44,1637.47,388.42z M1640.76,395.89c-0.89,2.84-3.91,4.41-6.75,3.52
							c-2.83-0.89-4.41-3.91-3.51-6.75c0.89-2.83,3.91-4.41,6.75-3.51C1640.08,390.03,1641.66,393.05,1640.76,395.89z
							 M1637.47,388.42c-3.23-1.02-6.67,0.78-7.69,4c-1.02,3.23,0.78,6.67,4,7.69c3.23,1.02,6.66-0.77,7.68-4
							C1642.49,392.88,1640.7,389.44,1637.47,388.42z M1640.76,395.89c-0.89,2.84-3.91,4.41-6.75,3.52
							c-2.83-0.89-4.41-3.91-3.51-6.75c0.89-2.83,3.91-4.41,6.75-3.51C1640.08,390.03,1641.66,393.05,1640.76,395.89z"/>
						<g>
							<polygon class="st6" points="1634.28,406.82 1629.54,405.33 1628.75,408.76 1632.96,410.09 							"/>
							<polygon class="st6" points="1625.77,402.39 1623.47,397.98 1620.48,399.85 1622.52,403.77 							"/>
							<polygon class="st6" points="1622.89,393.23 1624.38,388.49 1620.94,387.7 1619.62,391.91 							"/>
							<polygon class="st6" points="1627.32,384.72 1631.73,382.42 1629.86,379.43 1625.94,381.47 							"/>
							<polygon class="st6" points="1636.48,381.84 1641.21,383.33 1642.01,379.89 1637.8,378.57 							"/>
							<polygon class="st6" points="1644.99,386.27 1647.28,390.68 1650.27,388.81 1648.23,384.89 							"/>
							<polygon class="st6" points="1647.87,395.43 1646.38,400.16 1649.81,400.96 1651.14,396.75 							"/>
							<polygon class="st6" points="1643.43,403.94 1639.03,406.23 1640.9,409.22 1644.81,407.18 							"/>
						</g>
					</g>
				</g>
			</g>
		</g>
		<g>
			<g>
				<g>
					<g>
						<path class="st6" d="M1574.54,623.68c-3.23-1.02-6.67,0.78-7.69,4c-1.02,3.23,0.78,6.67,4.01,7.69c3.23,1.02,6.66-0.77,7.68-4
							C1579.56,628.14,1577.77,624.7,1574.54,623.68z M1577.83,631.14c-0.89,2.84-3.91,4.41-6.75,3.52
							c-2.83-0.89-4.41-3.91-3.51-6.75c0.89-2.83,3.91-4.41,6.75-3.51C1577.15,625.29,1578.72,628.31,1577.83,631.14z
							 M1574.54,623.68c-3.23-1.02-6.67,0.78-7.69,4c-1.02,3.23,0.78,6.67,4.01,7.69c3.23,1.02,6.66-0.77,7.68-4
							C1579.56,628.14,1577.77,624.7,1574.54,623.68z M1577.83,631.14c-0.89,2.84-3.91,4.41-6.75,3.52
							c-2.83-0.89-4.41-3.91-3.51-6.75c0.89-2.83,3.91-4.41,6.75-3.51C1577.15,625.29,1578.72,628.31,1577.83,631.14z
							 M1574.54,623.68c-3.23-1.02-6.67,0.78-7.69,4c-1.02,3.23,0.78,6.67,4.01,7.69c3.23,1.02,6.66-0.77,7.68-4
							C1579.56,628.14,1577.77,624.7,1574.54,623.68z M1577.83,631.14c-0.89,2.84-3.91,4.41-6.75,3.52
							c-2.83-0.89-4.41-3.91-3.51-6.75c0.89-2.83,3.91-4.41,6.75-3.51C1577.15,625.29,1578.72,628.31,1577.83,631.14z
							 M1576.59,617.21c-6.81-2.14-14.06,1.64-16.2,8.44c-2.14,6.8,1.63,14.06,8.44,16.2c6.8,2.14,14.05-1.64,16.2-8.44
							C1587.16,626.61,1583.38,619.35,1576.59,617.21z M1579.45,631.65c-1.17,3.73-5.16,5.8-8.88,4.63s-5.8-5.16-4.62-8.88
							c1.17-3.73,5.16-5.8,8.88-4.62C1578.55,623.95,1580.63,627.93,1579.45,631.65z M1578.54,631.37c1.02-3.23-0.77-6.67-4-7.69
							c-3.23-1.02-6.67,0.78-7.69,4c-1.02,3.23,0.78,6.67,4.01,7.69C1574.09,636.39,1577.52,634.6,1578.54,631.37z M1577.83,631.14
							c-0.89,2.84-3.91,4.41-6.75,3.52c-2.83-0.89-4.41-3.91-3.51-6.75c0.89-2.83,3.91-4.41,6.75-3.51
							C1577.15,625.29,1578.72,628.31,1577.83,631.14z M1574.54,623.68c-3.23-1.02-6.67,0.78-7.69,4c-1.02,3.23,0.78,6.67,4.01,7.69
							c3.23,1.02,6.66-0.77,7.68-4C1579.56,628.14,1577.77,624.7,1574.54,623.68z M1577.83,631.14c-0.89,2.84-3.91,4.41-6.75,3.52
							c-2.83-0.89-4.41-3.91-3.51-6.75c0.89-2.83,3.91-4.41,6.75-3.51C1577.15,625.29,1578.72,628.31,1577.83,631.14z
							 M1574.54,623.68c-3.23-1.02-6.67,0.78-7.69,4c-1.02,3.23,0.78,6.67,4.01,7.69c3.23,1.02,6.66-0.77,7.68-4
							C1579.56,628.14,1577.77,624.7,1574.54,623.68z M1577.83,631.14c-0.89,2.84-3.91,4.41-6.75,3.52
							c-2.83-0.89-4.41-3.91-3.51-6.75c0.89-2.83,3.91-4.41,6.75-3.51C1577.15,625.29,1578.72,628.31,1577.83,631.14z"/>
						<g>
							<polygon class="st6" points="1571.35,642.08 1566.61,640.59 1565.82,644.02 1570.03,645.35 							"/>
							<polygon class="st6" points="1562.84,637.64 1560.54,633.24 1557.55,635.11 1559.59,639.02 							"/>
							<polygon class="st6" points="1559.95,628.49 1561.45,623.75 1558.01,622.96 1556.68,627.17 							"/>
							<polygon class="st6" points="1564.39,619.98 1568.8,617.68 1566.93,614.69 1563.01,616.73 							"/>
							<polygon class="st6" points="1573.55,617.09 1578.28,618.59 1579.08,615.15 1574.86,613.82 							"/>
							<polygon class="st6" points="1582.06,621.53 1584.35,625.94 1587.34,624.07 1585.3,620.15 							"/>
							<polygon class="st6" points="1584.94,630.69 1583.45,635.42 1586.88,636.22 1588.21,632 							"/>
							<polygon class="st6" points="1580.5,639.2 1576.1,641.49 1577.97,644.48 1581.88,642.44 							"/>
						</g>
					</g>
				</g>
			</g>
		</g>
		<g>
			<g>
				<path class="st6" d="M1214.4,438.47c2.54-10.42-3.85-20.93-14.27-23.47c-10.42-2.54-20.93,3.85-23.47,14.27
					c-2.54,10.42,3.85,20.93,14.28,23.47C1201.35,455.29,1211.86,448.9,1214.4,438.47z M1204.34,436.02
					c-1.19,4.87-6.09,7.85-10.96,6.67c-4.87-1.19-7.85-6.09-6.67-10.96c1.19-4.87,6.09-7.85,10.96-6.66
					C1202.54,426.25,1205.52,431.16,1204.34,436.02z"/>
				<polygon class="st6" points="1194.74,452.85 1187.49,451.08 1186.64,456.32 1193.09,457.89 				"/>
				<polygon class="st6" points="1181.53,447.04 1177.65,440.66 1173.34,443.76 1176.8,449.43 				"/>
				<polygon class="st6" points="1176.29,433.58 1178.06,426.33 1172.82,425.48 1171.25,431.93 				"/>
				<polygon class="st6" points="1182.1,420.37 1188.48,416.49 1185.38,412.18 1179.71,415.64 				"/>
				<polygon class="st6" points="1195.56,415.13 1202.81,416.9 1203.66,411.66 1197.21,410.09 				"/>
				<polygon class="st6" points="1208.77,420.94 1212.65,427.32 1216.96,424.22 1213.5,418.55 				"/>
				<polygon class="st6" points="1214.01,434.39 1212.24,441.65 1217.48,442.5 1219.05,436.05 				"/>
				<polygon class="st6" points="1208.2,447.61 1201.82,451.49 1204.92,455.8 1210.59,452.34 				"/>
			</g>
			<path class="st6" d="M1189.48,437.44l5.82,3.19l5.67-3.45l-0.15-6.63l-5.82-3.19l-5.68,3.45L1189.48,437.44z M1195.65,431.94
				c1.13,0.28,1.82,1.41,1.55,2.54c-0.27,1.13-1.41,1.82-2.54,1.55c-1.13-0.27-1.82-1.42-1.55-2.54
				C1193.38,432.36,1194.52,431.67,1195.65,431.94z"/>
		</g>
	</g>
	<g>
		<g>
			<path class="st2" d="M1653.36,639.28c-4.43-6.75-6.92-14.33-6.92-22.35c0-28.32,31.1-51.28,69.43-51.28
				c38.33,0,69.4,22.96,69.4,51.28c0,28.32-31.07,51.28-69.4,51.28c-18.59,0-35.44-5.39-47.89-14.19l-23.92,6.08L1653.36,639.28z"/>
			<path class="st6" d="M1653.36,639.28c-14.01-20.82-5.82-45.5,13.83-59.23c30.18-21.38,77.86-19.88,104.88,6.14
				c10.92,10.49,16.71,26.8,12.12,41.6c-9.61,30-44.96,42.42-74,40.55c-14.69-0.85-30.82-5.66-42.15-14.1c0,0-23.94,5.97-23.94,5.97
				s-0.22,0.05-0.22,0.05s0.09-0.21,0.09-0.21L1653.36,639.28L1653.36,639.28z M1653.36,639.28l-9.19,20.86c0,0-0.13-0.15-0.13-0.15
				l23.89-6.2l0.1-0.03l0.09,0.06c12.31,8.57,27.2,13.02,42.11,13.87c14.92,0.85,30.15-1.73,43.61-8.29
				c29.9-14.19,42.73-47.01,17.58-72.58c-26.68-25.84-73.95-27.42-103.9-6.34C1647.94,594.17,1639.61,618.34,1653.36,639.28
				L1653.36,639.28z"/>
		</g>
		<g>
			<path class="st6" d="M1680.15,625.33v3.81h-15.54v-22.38h15.25v3.81h-10.9v5.39h9.42v3.53h-9.42v5.83H1680.15z"/>
			<path class="st6" d="M1683.56,629.14v-22.38h9.9c1.03,0,1.98,0.22,2.85,0.65c0.87,0.43,1.62,1,2.25,1.7
				c0.63,0.7,1.12,1.5,1.48,2.4c0.36,0.89,0.54,1.79,0.54,2.69c0,1.45-0.36,2.77-1.09,3.96c-0.72,1.19-1.71,2.04-2.95,2.57
				l5.11,8.41h-4.89l-4.57-7.5h-4.29v7.5H1683.56z M1687.91,617.83h5.45c0.4,0,0.77-0.09,1.12-0.28c0.35-0.19,0.65-0.45,0.9-0.77
				c0.25-0.32,0.45-0.71,0.6-1.15c0.15-0.44,0.22-0.91,0.22-1.42c0-0.52-0.09-1.01-0.25-1.45c-0.17-0.44-0.39-0.82-0.68-1.15
				c-0.28-0.33-0.61-0.58-0.98-0.76c-0.37-0.18-0.74-0.27-1.12-0.27h-5.26V617.83z"/>
			<path class="st6" d="M1704.51,629.14v-22.38h9.9c1.03,0,1.98,0.22,2.85,0.65c0.87,0.43,1.62,1,2.25,1.7
				c0.63,0.7,1.12,1.5,1.48,2.4c0.36,0.89,0.54,1.79,0.54,2.69c0,1.45-0.36,2.77-1.09,3.96c-0.72,1.19-1.71,2.04-2.95,2.57
				l5.11,8.41h-4.89l-4.57-7.5h-4.29v7.5H1704.51z M1708.86,617.83h5.45c0.4,0,0.77-0.09,1.12-0.28c0.35-0.19,0.65-0.45,0.9-0.77
				c0.25-0.32,0.45-0.71,0.6-1.15c0.15-0.44,0.22-0.91,0.22-1.42c0-0.52-0.09-1.01-0.25-1.45c-0.17-0.44-0.39-0.82-0.68-1.15
				c-0.28-0.33-0.61-0.58-0.98-0.76c-0.37-0.18-0.74-0.27-1.12-0.27h-5.26V617.83z"/>
			<path class="st6" d="M1735.02,629.3c-1.64,0-3.12-0.32-4.46-0.96c-1.33-0.64-2.48-1.49-3.44-2.55c-0.96-1.06-1.7-2.27-2.22-3.64
				c-0.52-1.37-0.79-2.76-0.79-4.19c0-1.49,0.28-2.92,0.83-4.29c0.56-1.37,1.32-2.57,2.3-3.62c0.98-1.05,2.14-1.89,3.48-2.51
				c1.34-0.62,2.8-0.93,4.38-0.93c1.62,0,3.09,0.33,4.43,0.99c1.33,0.66,2.47,1.53,3.42,2.6c0.95,1.07,1.68,2.29,2.21,3.66
				c0.53,1.37,0.79,2.75,0.79,4.16c0,1.49-0.27,2.91-0.82,4.27c-0.55,1.36-1.3,2.55-2.27,3.59c-0.97,1.04-2.12,1.87-3.47,2.49
				C1738.06,628.99,1736.6,629.3,1735.02,629.3z M1728.53,617.95c0,0.97,0.15,1.9,0.44,2.8c0.29,0.9,0.72,1.7,1.28,2.4
				c0.56,0.69,1.24,1.25,2.05,1.67c0.81,0.42,1.73,0.63,2.76,0.63c1.05,0,1.98-0.21,2.79-0.65c0.81-0.43,1.49-1,2.05-1.72
				c0.56-0.71,0.98-1.52,1.26-2.41c0.28-0.89,0.42-1.8,0.42-2.73c0-0.97-0.15-1.9-0.46-2.8c-0.31-0.9-0.73-1.7-1.29-2.4
				c-0.56-0.69-1.24-1.24-2.05-1.65c-0.81-0.41-1.72-0.62-2.73-0.62c-1.05,0-1.99,0.22-2.8,0.65c-0.82,0.43-1.5,1-2.05,1.7
				c-0.55,0.7-0.96,1.5-1.24,2.4C1728.67,616.12,1728.53,617.03,1728.53,617.95z"/>
			<path class="st6" d="M1749.29,629.14v-22.38h9.9c1.03,0,1.98,0.22,2.85,0.65c0.87,0.43,1.62,1,2.25,1.7
				c0.63,0.7,1.12,1.5,1.48,2.4c0.36,0.89,0.54,1.79,0.54,2.69c0,1.45-0.36,2.77-1.09,3.96c-0.72,1.19-1.71,2.04-2.95,2.57
				l5.11,8.41h-4.89l-4.57-7.5h-4.29v7.5H1749.29z M1753.64,617.83h5.45c0.4,0,0.77-0.09,1.12-0.28c0.35-0.19,0.65-0.45,0.9-0.77
				c0.25-0.32,0.45-0.71,0.6-1.15c0.15-0.44,0.22-0.91,0.22-1.42c0-0.52-0.09-1.01-0.25-1.45c-0.17-0.44-0.39-0.82-0.68-1.15
				c-0.28-0.33-0.61-0.58-0.98-0.76c-0.37-0.18-0.74-0.27-1.12-0.27h-5.26V617.83z"/>
		</g>
	</g>
</g>
</svg>
