<svg xmlns="http://www.w3.org/2000/svg" viewBox="0 0 36.62 29.68"><defs><style>.cls-1{fill:#37383a;}</style></defs><title>cart</title><g id="Слой_2" data-name="Слой 2"><g id="Слой_3" data-name="Слой 3"><path class="cls-1" d="M0,13.48c.09-.14.19-.26.27-.4C1.5,11,2.71,8.88,4,6.79a1.47,1.47,0,0,1,.64-.57Q11.24,3.15,17.89.1a.92.92,0,0,1,.84,0Q25.36,3.16,32,6.18a1.48,1.48,0,0,1,.7.63Q34.55,10,36.42,13.2a1.79,1.79,0,0,0,.2.28v.43a4.93,4.93,0,0,1-.61.4L22.77,20.38c-.56.26-.72.2-1-.34l-2.84-4.87V28.3l.36-.15,12-5.5a.42.42,0,0,0,.28-.46c0-1.33,0-2.67,0-4,0-.45.2-.7.53-.7s.54.26.54.7c0,1.51,0,3,0,4.51a.7.7,0,0,1-.46.72L18.68,29.59a.84.84,0,0,1-.77,0L4.47,23.42A.66.66,0,0,1,4,22.77c0-1.55,0-3.1,0-4.64a.82.82,0,0,1,.3-.56.54.54,0,0,1,.51,0,.8.8,0,0,1,.24.55c0,1.33,0,2.67,0,4a.5.5,0,0,0,.35.53l12,5.48.35.15V15.18l-.23.36-2.65,4.53c-.29.5-.48.56-1,.33L.55,14.28A4.07,4.07,0,0,1,0,13.91ZM5.88,6.79c.08.06.1.09.13.1,4,1.84,8.05,3.69,12.08,5.52a.69.69,0,0,0,.49,0L30.49,7a2.29,2.29,0,0,0,.24-.15l-.16-.09-12-5.51a.7.7,0,0,0-.49,0L12.1,3.94Zm29.44,6.66L31.85,7.5,19.07,13.36l3.47,5.95Zm-34,0,12.78,5.86,3.47-5.95L4.77,7.5Z"/></g></g></svg>