<svg xmlns="http://www.w3.org/2000/svg" viewBox="0 0 14.63 24.96"><defs><style>.cls-1{fill:#b5b5b5;}</style></defs><title>Ресурс 10</title><g id="Слой_2" data-name="Слой 2"><g id="Слой_3" data-name="Слой 3"><path class="cls-1" d="M14.63,12.47c0,3.42,0,6.84,0,10.27A2.12,2.12,0,0,1,13,24.89a2.81,2.81,0,0,1-.65.07h-10A2.15,2.15,0,0,1,.07,23.3,3,3,0,0,1,0,22.63V2.31A2.16,2.16,0,0,1,2.32,0h10a2.15,2.15,0,0,1,2.31,2.31ZM4.32.86H2.25A1.29,1.29,0,0,0,.86,2.24V22.72A1.3,1.3,0,0,0,2.23,24.1H12.4a1.29,1.29,0,0,0,1.37-1.4V2.25A1.28,1.28,0,0,0,12.39.86H10.33V1.2A1.33,1.33,0,0,1,9,2.57c-1.12,0-2.24,0-3.35,0A1.34,1.34,0,0,1,4.32,1.41,5,5,0,0,1,4.32.86Zm.87,0c-.06.69.09.85.75.85.95,0,1.89,0,2.84,0,.57,0,.79-.27.65-.85Z"/></g></g></svg>