<svg xmlns="http://www.w3.org/2000/svg" xmlns:xlink="http://www.w3.org/1999/xlink" viewBox="0 0 18.75 24.96"><defs><style>.cls-1{fill:none;}.cls-2{clip-path:url(#clip-path);}.cls-3{fill:#b5b5b5;}</style><clipPath id="clip-path" transform="translate(-5.16 -2.74)"><rect class="cls-1" width="29.35" height="31.3"/></clipPath></defs><title>Ресурс 8</title><g id="Слой_2" data-name="Слой 2"><g id="Слой_3" data-name="Слой 3"><g class="cls-2"><path class="cls-3" d="M15.24,2.74c.5.09,1,.15,1.51.27a9.43,9.43,0,0,1,7.1,7.92,9.75,9.75,0,0,1-1.07,5.54,30.17,30.17,0,0,1-3.44,5.36c-1.22,1.59-2.48,3.16-3.72,4.74-.21.28-.41.58-.62.87a.53.53,0,0,1-.9,0c-1.53-2-3.06-3.93-4.57-5.91a27.53,27.53,0,0,1-3.39-5.44,9.44,9.44,0,0,1-.95-4.7,9.41,9.41,0,0,1,8.48-8.63,1.16,1.16,0,0,0,.18,0Zm-.69,23.48.57-.75c1.33-1.71,2.69-3.4,4-5.13a23.68,23.68,0,0,0,3-4.95A8,8,0,0,0,22.57,10,8.3,8.3,0,0,0,9.33,5.66a8.08,8.08,0,0,0-2.7,8.79,16.66,16.66,0,0,0,2.28,4.39c1.39,1.9,2.84,3.76,4.27,5.63C13.62,25.05,14.08,25.62,14.55,26.22Z" transform="translate(-5.16 -2.74)"/><path class="cls-3" d="M21.62,12.13a7.08,7.08,0,1,1-7-7.09A7.09,7.09,0,0,1,21.62,12.13Zm-1.07,0a6,6,0,1,0-6,6A6,6,0,0,0,20.55,12.12Z" transform="translate(-5.16 -2.74)"/></g></g></g></svg>