<svg xmlns="http://www.w3.org/2000/svg" viewBox="0 0 18.74 18.75"><title>search</title><g id="Слой_2" data-name="Слой 2"><g id="Слой_3" data-name="Слой 3"><path d="M8.38,0c.34.05.68.08,1,.15a7.83,7.83,0,0,1,4.17,2.23,7.59,7.59,0,0,1,1.23,9.08c-.29.52-.67,1-1,1.51l-.09,0a.68.68,0,0,1,.17.09l4.61,4.53a2.6,2.6,0,0,1,.27.38v.26c-.19.4-.48.56-.82.43a1.19,1.19,0,0,1-.29-.21L13,13.93l-.15-.13c-.25.17-.48.34-.73.49A7.77,7.77,0,0,1,7.6,15.51a7.73,7.73,0,0,1-5.46-2.45A7.38,7.38,0,0,1,.09,8.92,7.45,7.45,0,0,1,1.48,3.25,7.76,7.76,0,0,1,6.26.17C6.57.1,6.89.08,7.2,0l.16,0ZM1.21,7.72c0,.27,0,.5,0,.72a6.36,6.36,0,0,0,1.69,3.71,6.51,6.51,0,0,0,6.28,2,6.32,6.32,0,0,0,4.68-3.62,6.16,6.16,0,0,0-.17-5.93A6.4,6.4,0,0,0,8.67,1.25,6.43,6.43,0,0,0,3.85,2.54,6.46,6.46,0,0,0,1.21,7.72Z"/></g></g></svg>